<svg width="20" height="15" viewBox="0 0 20 15" fill="none" xmlns="http://www.w3.org/2000/svg">
<g clip-path="url(#clip0_2_11396)">
<path fill-rule="evenodd" clip-rule="evenodd" d="M7.62695 0.00774939H14.7266L16.3542 2.88861H19.6777C19.7641 2.88861 19.8469 2.9229 19.9079 2.98395C19.969 3.045 20.0033 3.1278 20.0033 3.21413V14.4527C20.0033 14.5391 19.969 14.6219 19.9079 14.6829C19.8469 14.744 19.7641 14.7783 19.6777 14.7783H0.325521C0.239187 14.7783 0.15639 14.744 0.0953429 14.6829C0.0342959 14.6219 0 14.5391 0 14.4527V3.21087C0 3.12454 0.0342959 3.04174 0.0953429 2.9807C0.15639 2.91965 0.239187 2.88535 0.325521 2.88535H1.82454V1.85508H3.67188V2.88861H5.68359L6.93848 0.411395C7.19238 -0.0931621 7.05404 0.00774939 7.62695 0.00774939ZM10.8464 5.15912C11.476 5.15873 12.0916 5.34513 12.6152 5.69475C13.1388 6.04436 13.547 6.54146 13.788 7.12313C14.029 7.7048 14.092 8.3449 13.969 8.9624C13.8461 9.5799 13.5427 10.147 13.0973 10.5921L13.0599 10.6262C12.6856 10.9889 12.2279 11.2541 11.7272 11.3985C11.2264 11.5429 10.6978 11.5621 10.1879 11.4543C9.67792 11.3466 9.20226 11.1152 8.80268 10.7806C8.4031 10.446 8.09184 10.0183 7.89624 9.53524C7.70065 9.05215 7.62671 8.5284 7.68093 8.01004C7.73515 7.49168 7.91587 6.99458 8.20721 6.56242C8.49854 6.13026 8.89157 5.77628 9.35175 5.53159C9.81193 5.2869 10.3252 5.159 10.8464 5.15912ZM12.2721 6.9153C11.9911 6.63542 11.6337 6.44469 11.2448 6.36703C10.8558 6.28937 10.4526 6.32822 10.0857 6.47871C9.7187 6.62921 9.40431 6.88466 9.1819 7.21305C8.95948 7.54144 8.83893 7.92817 8.83534 8.32478C8.83175 8.72139 8.9453 9.11024 9.16174 9.4426C9.37819 9.77496 9.6879 10.036 10.0521 10.1932C10.4163 10.3503 10.8187 10.3964 11.209 10.3258C11.5993 10.2552 11.9601 10.0709 12.2461 9.79616L12.2721 9.76524C12.4595 9.57809 12.6082 9.35584 12.7096 9.11119C12.8111 8.86654 12.8633 8.6043 12.8633 8.33946C12.8633 8.07461 12.8111 7.81237 12.7096 7.56772C12.6082 7.32307 12.4595 7.10082 12.2721 6.91367V6.9153ZM17.915 4.31114C18.105 4.31114 18.2906 4.36746 18.4485 4.47297C18.6065 4.57849 18.7295 4.72847 18.8022 4.90394C18.8749 5.07941 18.8939 5.27249 18.8569 5.45876C18.8198 5.64504 18.7284 5.81615 18.5941 5.95045C18.4598 6.08475 18.2887 6.1762 18.1024 6.21326C17.9161 6.25031 17.723 6.23129 17.5476 6.15861C17.3721 6.08593 17.2221 5.96285 17.1166 5.80493C17.0111 5.64701 16.9548 5.46135 16.9548 5.27142C16.9548 5.01674 17.0559 4.77249 17.236 4.5924C17.4161 4.41231 17.6604 4.31114 17.915 4.31114ZM10.848 3.53477C11.7986 3.53477 12.7278 3.81665 13.5182 4.34478C14.3086 4.8729 14.9247 5.62355 15.2884 6.50179C15.6522 7.38003 15.7474 8.34642 15.5619 9.27875C15.3765 10.2111 14.9187 11.0675 14.2466 11.7397C13.5744 12.4118 12.718 12.8696 11.7856 13.055C10.8533 13.2405 9.88692 13.1453 9.00869 12.7815C8.13045 12.4178 7.3798 11.8017 6.85168 11.0113C6.32355 10.2209 6.04167 9.29168 6.04167 8.34108C6.04167 7.06637 6.54805 5.84386 7.4494 4.94251C8.35076 4.04115 9.57327 3.53477 10.848 3.53477Z" fill="#6D7993"/>
</g>
<defs>
<clipPath id="clip0_2_11396">
<rect width="20" height="14.7754" fill="white"/>
</clipPath>
</defs>
</svg>
