<svg width="12" height="16" viewBox="0 0 12 16" fill="none" xmlns="http://www.w3.org/2000/svg">
<path d="M11.4241 4.18472C11.3882 4.09687 11.3443 4.01302 11.2844 3.94115L7.93819 0.279514C7.86233 0.19566 7.77049 0.135764 7.67066 0.0838541C7.55486 0.0239583 7.42708 0 7.29132 0H0.906423C0.411285 0 0 0.423264 0 0.95434V14.3391C0 14.8741 0.411285 15.3333 0.906423 15.3333H10.6135C11.1087 15.3333 11.5 14.8741 11.5 14.3391V4.59201C11.5 4.44826 11.48 4.30851 11.4241 4.18472ZM1.91667 4.56007C1.91667 4.50017 1.98854 4.47621 2.05243 4.47621H4.87951C4.9434 4.47621 4.99132 4.50017 4.99132 4.56007V4.99132C4.99132 5.04722 4.9474 5.1151 4.87951 5.1151H2.05243C1.98854 5.1151 1.91667 5.04722 1.91667 4.99132V4.56007V4.56007ZM1.91667 9.67118C1.91667 9.61128 1.98854 9.58732 2.05243 9.58732H6.93194C6.99583 9.58732 7.02778 9.61128 7.02778 9.67118V10.1024C7.02778 10.1583 6.99983 10.2262 6.93194 10.2262H2.05243C1.98854 10.2262 1.91667 10.1583 1.91667 10.1024V9.67118ZM8.30556 12.658C8.30556 12.7139 8.2776 12.7818 8.20972 12.7818H2.05243C1.98854 12.7818 1.91667 12.7139 1.91667 12.658V12.2267C1.91667 12.1668 1.98854 12.1429 2.05243 12.1429H8.20972C8.27361 12.1429 8.30556 12.1668 8.30556 12.2267V12.658ZM9.58333 7.54687C9.58333 7.60278 9.55538 7.67066 9.4875 7.67066H2.05243C1.98854 7.67066 1.91667 7.60278 1.91667 7.54687V7.11562C1.91667 7.05573 1.98854 7.03177 2.05243 7.03177H9.4875C9.55139 7.03177 9.58333 7.05573 9.58333 7.11562V7.54687ZM7.71059 4.51614C7.48698 4.51614 7.26736 4.30851 7.26736 4.06493V1.42951L10.1104 4.51614H7.71059Z" fill="#99D3DF"/>
</svg>
