<svg width="14" height="20" viewBox="0 0 14 20" fill="none" xmlns="http://www.w3.org/2000/svg">
<path d="M11.9904 7.71675C12.027 7.65331 12.0758 7.59771 12.1339 7.55311C12.192 7.50852 12.2584 7.47581 12.3291 7.45685C12.3999 7.43789 12.4737 7.43305 12.5463 7.44261C12.6189 7.45218 12.689 7.47595 12.7524 7.51258C12.8158 7.5492 12.8715 7.59797 12.916 7.65608C12.9606 7.7142 12.9934 7.78053 13.0123 7.85129C13.0313 7.92205 13.0361 7.99585 13.0265 8.06848C13.017 8.1411 12.9932 8.21114 12.9566 8.27458L7.87994 17.0657C7.31034 18.0081 6.39284 18.6885 5.32566 18.9601C4.25849 19.2316 3.12734 19.0723 2.17663 18.5167C1.22591 17.9611 0.531966 17.0537 0.244733 15.9907C-0.0424995 14.9276 0.100043 13.7942 0.641563 12.8354L6.7326 2.28157L6.76546 2.23045C7.24476 1.50818 7.81623 1.01934 8.49905 0.803933C9.18188 0.588527 9.95913 0.662374 10.8139 1.07797L10.8252 1.0834L10.8502 1.09785C11.2353 1.3141 11.5708 1.60861 11.8351 1.9624C12.0862 2.30549 12.2482 2.70558 12.3065 3.12675C12.3809 3.63828 12.3269 4.16028 12.1493 4.64572C11.9919 5.06145 11.7953 5.46127 11.5622 5.83978L5.90955 15.6344C5.67515 16.0391 5.2907 16.3352 4.8395 16.4585C4.3883 16.5818 3.90671 16.5223 3.49906 16.293L3.48404 16.2843C3.08377 16.0535 2.78951 15.6755 2.66404 15.2308C2.53856 14.7861 2.59181 14.31 2.81241 13.9041L2.83448 13.8601L7.70434 5.42909C7.74097 5.36565 7.78973 5.31005 7.84785 5.26545C7.90597 5.22086 7.9723 5.18814 8.04306 5.16919C8.11381 5.15023 8.18761 5.14539 8.26024 5.15495C8.33287 5.16451 8.4029 5.18828 8.46634 5.22491C8.52978 5.26154 8.58539 5.3103 8.62998 5.36842C8.67458 5.42654 8.70729 5.49287 8.72625 5.56363C8.74521 5.63438 8.75005 5.70818 8.74048 5.78081C8.73092 5.85344 8.70715 5.92347 8.67052 5.98691L3.79147 14.4415C3.71516 14.592 3.69877 14.7658 3.7456 14.9279C3.79243 15.0899 3.89899 15.2282 4.04379 15.3148C4.19501 15.4016 4.3745 15.4251 4.54296 15.3799C4.71142 15.3348 4.85514 15.2248 4.94266 15.0739L10.6004 5.28221C10.7966 4.96309 10.9638 4.62701 11.1 4.27801C11.216 3.96123 11.2517 3.62069 11.204 3.28675C11.1703 3.04525 11.0778 2.81573 10.9346 2.61838C10.764 2.39565 10.5501 2.20971 10.3057 2.07174C9.72931 1.79456 9.24118 1.73635 8.82761 1.86691C8.41403 1.99747 8.03467 2.33468 7.69625 2.84571L1.60739 13.3919C1.2143 14.0951 1.11255 14.9243 1.324 15.7017C1.53545 16.479 2.04324 17.1425 2.73836 17.5496C3.43348 17.9568 4.26052 18.0752 5.04195 17.8794C5.82339 17.6836 6.49692 17.1893 6.91796 16.5025L11.9904 7.71675Z" fill="#6D7993"/>
</svg>
