<svg xmlns="http://www.w3.org/2000/svg" version="1.1" xmlns:xlink="http://www.w3.org/1999/xlink" xmlns:svgjs="http://svgjs.dev/svgjs" viewBox="0 0 10.369736928350155 1.8361861705425522"><g transform="matrix(1,0,0,1,2.1721397362351915,0.36309308527127626)"><rect width="10.369736928350155" height="10.369736928350155" x="-2.1721397362351915" y="-4.629868464175078" fill="#343432"></rect><g><path d=" M 0.2085 0.05999999999999983 Q 0.2445 0.05999999999999983 0.27225 0.08624999999999994 Q 0.3 0.11249999999999982 0.3 0.15149999999999986 L 0.3 1.0185 Q 0.3 1.0574999999999999 0.2715 1.0837499999999998 Q 0.243 1.1099999999999999 0.20550000000000002 1.1099999999999999 Q 0.1635 1.1099999999999999 0.138 1.0837499999999998 Q 0.1125 1.0574999999999999 0.1125 1.0185 L 0.1125 0.15149999999999986 Q 0.1125 0.11249999999999982 0.1395 0.08624999999999994 Q 0.1665 0.05999999999999983 0.2085 0.05999999999999983 M 0.873 0.05999999999999983 Q 0.915 0.05999999999999983 0.9405 0.08624999999999994 Q 0.966 0.11249999999999982 0.966 0.15149999999999986 L 0.966 1.0185 Q 0.966 1.0574999999999999 0.93975 1.0837499999999998 Q 0.9135 1.1099999999999999 0.87 1.1099999999999999 Q 0.834 1.1099999999999999 0.80625 1.0837499999999998 Q 0.7785 1.0574999999999999 0.7785 1.0185 L 0.7785 0.15149999999999986 Q 0.7785 0.11249999999999982 0.807 0.08624999999999994 Q 0.8355 0.05999999999999983 0.873 0.05999999999999983 M 0.20400000000000001 0.49649999999999983 L 0.873 0.49649999999999983 L 0.873 0.6689999999999998 L 0.20400000000000001 0.6689999999999998 L 0.20400000000000001 0.49649999999999983 M 1.5614912109375 1.1249999999999998 Q 1.4339912109375001 1.1249999999999998 1.3402412109375001 1.07175 Q 1.2464912109375001 1.0185 1.1962412109375 0.9269999999999998 Q 1.1459912109375001 0.8354999999999999 1.1459912109375001 0.7199999999999999 Q 1.1459912109375001 0.5849999999999999 1.2007412109375002 0.4897499999999999 Q 1.2554912109375 0.39449999999999985 1.3439912109375 0.3434999999999998 Q 1.4324912109375 0.29249999999999987 1.5314912109375 0.29249999999999987 Q 1.6079912109375 0.29249999999999987 1.6762412109375 0.32399999999999984 Q 1.7444912109375001 0.3554999999999998 1.7969912109375001 0.4102499999999999 Q 1.8494912109375001 0.46499999999999986 1.8802412109375002 0.5369999999999998 Q 1.9109912109375 0.6089999999999999 1.9109912109375 0.69 Q 1.9094912109375002 0.7259999999999999 1.8824912109375003 0.7484999999999999 Q 1.8554912109375001 0.7709999999999999 1.8194912109375 0.7709999999999999 L 1.2464912109375001 0.7709999999999999 L 1.2014912109375002 0.6209999999999999 L 1.7519912109375002 0.6209999999999999 L 1.7189912109375003 0.6509999999999998 L 1.7189912109375003 0.6104999999999998 Q 1.7159912109375002 0.5669999999999998 1.6882412109375 0.5324999999999999 Q 1.6604912109375003 0.4979999999999999 1.6192412109375 0.4777499999999999 Q 1.5779912109375 0.4574999999999999 1.5314912109375 0.4574999999999999 Q 1.4864912109375001 0.4574999999999999 1.4474912109375002 0.4694999999999999 Q 1.4084912109375 0.4814999999999998 1.3799912109375 0.5099999999999999 Q 1.3514912109375001 0.5384999999999999 1.3349912109375002 0.5864999999999999 Q 1.3184912109375002 0.6344999999999998 1.3184912109375002 0.7079999999999999 Q 1.3184912109375002 0.7889999999999999 1.3522412109375002 0.8452499999999998 Q 1.3859912109375 0.9014999999999999 1.4392412109375001 0.9307499999999999 Q 1.4924912109375001 0.9599999999999999 1.5524912109375002 0.9599999999999999 Q 1.6079912109375 0.9599999999999999 1.6409912109375 0.9509999999999998 Q 1.6739912109375001 0.9419999999999998 1.6942412109375002 0.9292499999999999 Q 1.7144912109375001 0.9164999999999999 1.7309912109375003 0.9074999999999999 Q 1.7579912109375 0.8939999999999999 1.7819912109375 0.8939999999999999 Q 1.8149912109375002 0.8939999999999999 1.8367412109375 0.9164999999999999 Q 1.8584912109375002 0.9389999999999998 1.8584912109375002 0.9689999999999999 Q 1.8584912109375002 1.0094999999999998 1.8164912109375 1.0425 Q 1.7774912109375003 1.0755 1.7069912109375003 1.10025 Q 1.6364912109375003 1.1249999999999998 1.5614912109375 1.1249999999999998 M 2.731559326171875 0.29249999999999987 Q 2.7705593261718753 0.29249999999999987 2.7960593261718754 0.31799999999999984 Q 2.821559326171875 0.3434999999999998 2.821559326171875 0.3839999999999999 L 2.821559326171875 1.0185 Q 2.821559326171875 1.0574999999999999 2.7960593261718754 1.0837499999999998 Q 2.7705593261718753 1.1099999999999999 2.731559326171875 1.1099999999999999 Q 2.6925593261718754 1.1099999999999999 2.6670593261718754 1.0837499999999998 Q 2.6415593261718753 1.0574999999999999 2.6415593261718753 1.0185 L 2.6415593261718753 0.9449999999999998 L 2.674559326171875 0.9584999999999999 Q 2.674559326171875 0.9779999999999999 2.6535593261718753 1.00575 Q 2.6325593261718754 1.0334999999999999 2.5965593261718753 1.0604999999999998 Q 2.5605593261718753 1.0875 2.5118093261718752 1.10625 Q 2.463059326171875 1.1249999999999998 2.4060593261718752 1.1249999999999998 Q 2.3025593261718753 1.1249999999999998 2.2185593261718752 1.07175 Q 2.134559326171875 1.0185 2.085809326171875 0.9247499999999998 Q 2.0370593261718755 0.8309999999999998 2.0370593261718755 0.7094999999999998 Q 2.0370593261718755 0.5864999999999999 2.085809326171875 0.4927499999999999 Q 2.134559326171875 0.3989999999999999 2.217059326171875 0.3457499999999999 Q 2.299559326171875 0.29249999999999987 2.4000593261718755 0.29249999999999987 Q 2.4645593261718752 0.29249999999999987 2.518559326171875 0.31199999999999983 Q 2.5725593261718753 0.3314999999999999 2.612309326171875 0.3614999999999998 Q 2.6520593261718752 0.39149999999999985 2.673809326171875 0.4222499999999999 Q 2.695559326171875 0.45299999999999985 2.695559326171875 0.47399999999999987 L 2.6415593261718753 0.4934999999999998 L 2.6415593261718753 0.3839999999999999 Q 2.6415593261718753 0.34499999999999986 2.6670593261718754 0.31874999999999987 Q 2.6925593261718754 0.29249999999999987 2.731559326171875 0.29249999999999987 M 2.428559326171875 0.9599999999999999 Q 2.494559326171875 0.9599999999999999 2.544059326171875 0.9269999999999998 Q 2.5935593261718752 0.8939999999999999 2.6213093261718754 0.8369999999999999 Q 2.649059326171875 0.7799999999999998 2.649059326171875 0.7094999999999998 Q 2.649059326171875 0.6374999999999998 2.6213093261718754 0.5804999999999999 Q 2.5935593261718752 0.5234999999999999 2.544059326171875 0.4904999999999998 Q 2.494559326171875 0.4574999999999999 2.428559326171875 0.4574999999999999 Q 2.3640593261718754 0.4574999999999999 2.3145593261718753 0.4904999999999998 Q 2.265059326171875 0.5234999999999999 2.237309326171875 0.5804999999999999 Q 2.2095593261718753 0.6374999999999998 2.2095593261718753 0.7094999999999998 Q 2.2095593261718753 0.7799999999999998 2.237309326171875 0.8369999999999999 Q 2.265059326171875 0.8939999999999999 2.3145593261718753 0.9269999999999998 Q 2.3640593261718754 0.9599999999999999 2.428559326171875 0.9599999999999999 M 3.2265380859375004 1.0185 Q 3.2265380859375004 1.0574999999999999 3.2002880859375002 1.0837499999999998 Q 3.1740380859375 1.1099999999999999 3.1350380859375004 1.1099999999999999 Q 3.0975380859375004 1.1099999999999999 3.0720380859375003 1.0837499999999998 Q 3.0465380859375 1.0574999999999999 3.0465380859375 1.0185 L 3.0465380859375 0.09149999999999991 Q 3.0465380859375 0.05249999999999977 3.0727880859375003 0.026249999999999885 Q 3.0990380859375004 -2.220446049250313e-16 3.1380380859375006 -2.220446049250313e-16 Q 3.1770380859375003 -2.220446049250313e-16 3.2017880859375003 0.026249999999999885 Q 3.2265380859375004 0.05249999999999977 3.2265380859375004 0.09149999999999991 L 3.2265380859375004 1.0185 M 3.4560812988281255 0.3224999999999999 L 3.8115812988281257 0.3224999999999999 Q 3.8475812988281257 0.3224999999999999 3.8715812988281257 0.3464999999999998 Q 3.8955812988281258 0.37049999999999983 3.8955812988281258 0.40649999999999986 Q 3.8955812988281258 0.44099999999999984 3.8715812988281257 0.46424999999999983 Q 3.8475812988281257 0.4874999999999998 3.8115812988281257 0.4874999999999998 L 3.4560812988281255 0.4874999999999998 Q 3.4200812988281255 0.4874999999999998 3.3960812988281255 0.4634999999999999 Q 3.3720812988281255 0.4394999999999999 3.3720812988281255 0.40349999999999986 Q 3.3720812988281255 0.3689999999999999 3.3960812988281255 0.3457499999999999 Q 3.4200812988281255 0.3224999999999999 3.4560812988281255 0.3224999999999999 M 3.6165812988281254 0.1349999999999999 Q 3.6555812988281255 0.1349999999999999 3.6803312988281256 0.1612499999999999 Q 3.7050812988281256 0.1874999999999999 3.7050812988281256 0.2264999999999998 L 3.7050812988281256 0.8939999999999999 Q 3.7050812988281256 0.9149999999999998 3.7133312988281255 0.9284999999999999 Q 3.7215812988281254 0.9419999999999998 3.7358312988281255 0.9479999999999998 Q 3.7500812988281256 0.9539999999999998 3.7665812988281253 0.9539999999999998 Q 3.7845812988281256 0.9539999999999998 3.7995812988281257 0.9472499999999999 Q 3.8145812988281254 0.9404999999999999 3.8340812988281257 0.9404999999999999 Q 3.8550812988281256 0.9404999999999999 3.8723312988281258 0.9599999999999999 Q 3.8895812988281255 0.9794999999999998 3.8895812988281255 1.0139999999999998 Q 3.8895812988281255 1.0559999999999998 3.8438312988281256 1.083 Q 3.7980812988281256 1.1099999999999999 3.7455812988281254 1.1099999999999999 Q 3.7140812988281255 1.1099999999999999 3.6758312988281254 1.10475 Q 3.6375812988281258 1.0995 3.6038312988281254 1.0792499999999998 Q 3.5700812988281254 1.059 3.5475812988281255 1.017 Q 3.5250812988281255 0.9749999999999999 3.5250812988281255 0.9014999999999999 L 3.5250812988281255 0.2264999999999998 Q 3.5250812988281255 0.1874999999999999 3.5513312988281256 0.1612499999999999 Q 3.5775812988281257 0.1349999999999999 3.6165812988281254 0.1349999999999999 M 4.497076171875 0.29249999999999987 Q 4.605076171875001 0.29249999999999987 4.661326171875 0.33899999999999986 Q 4.717576171875001 0.38549999999999984 4.738576171875001 0.4627499999999999 Q 4.7595761718750005 0.5399999999999998 4.7595761718750005 0.6344999999999998 L 4.7595761718750005 1.0185 Q 4.7595761718750005 1.0574999999999999 4.734076171875 1.0837499999999998 Q 4.708576171875 1.1099999999999999 4.669576171875001 1.1099999999999999 Q 4.630576171875001 1.1099999999999999 4.605076171875001 1.0837499999999998 Q 4.579576171875001 1.0574999999999999 4.579576171875001 1.0185 L 4.579576171875001 0.6344999999999998 Q 4.579576171875001 0.5849999999999999 4.567576171875 0.5452499999999999 Q 4.555576171875001 0.5054999999999998 4.524076171875 0.4814999999999998 Q 4.492576171875001 0.4574999999999999 4.434076171875001 0.4574999999999999 Q 4.377076171875 0.4574999999999999 4.336576171875 0.4814999999999998 Q 4.296076171875001 0.5054999999999998 4.275826171875001 0.5452499999999999 Q 4.255576171875001 0.5849999999999999 4.255576171875001 0.6344999999999998 L 4.255576171875001 1.0185 Q 4.255576171875001 1.0574999999999999 4.230076171875001 1.0837499999999998 Q 4.204576171875001 1.1099999999999999 4.165576171875001 1.1099999999999999 Q 4.1265761718750005 1.1099999999999999 4.101076171875 1.0837499999999998 Q 4.075576171875 1.0574999999999999 4.075576171875 1.0185 L 4.075576171875 0.09149999999999991 Q 4.075576171875 0.05249999999999977 4.101076171875 0.026249999999999885 Q 4.1265761718750005 -2.220446049250313e-16 4.165576171875001 -2.220446049250313e-16 Q 4.204576171875001 -2.220446049250313e-16 4.230076171875001 0.026249999999999885 Q 4.255576171875001 0.05249999999999977 4.255576171875001 0.09149999999999991 L 4.255576171875001 0.4634999999999999 L 4.233076171875001 0.45899999999999985 Q 4.246576171875001 0.4334999999999999 4.270576171875001 0.4042499999999999 Q 4.294576171875001 0.3749999999999999 4.329076171875001 0.3494999999999998 Q 4.363576171875001 0.32399999999999984 4.405576171875 0.3082499999999999 Q 4.447576171875001 0.29249999999999987 4.497076171875 0.29249999999999987 M 5.563573974609376 0.9344999999999999 Q 5.602573974609376 0.9344999999999999 5.628823974609376 0.9592499999999999 Q 5.655073974609376 0.9839999999999999 5.655073974609376 1.023 Q 5.655073974609376 1.0604999999999998 5.628823974609376 1.0852499999999998 Q 5.602573974609376 1.1099999999999999 5.563573974609376 1.1099999999999999 L 5.0760739746093755 1.1099999999999999 Q 5.037073974609376 1.1099999999999999 5.010823974609376 1.0837499999999998 Q 4.984573974609376 1.0574999999999999 4.984573974609376 1.0185 L 4.984573974609376 0.15149999999999986 Q 4.984573974609376 0.11249999999999982 5.011573974609376 0.08624999999999994 Q 5.038573974609376 0.05999999999999983 5.080573974609376 0.05999999999999983 Q 5.116573974609376 0.05999999999999983 5.144323974609375 0.08624999999999994 Q 5.172073974609376 0.11249999999999982 5.172073974609376 0.15149999999999986 L 5.172073974609376 0.9599999999999999 L 5.139073974609376 0.9344999999999999 L 5.563573974609376 0.9344999999999999 M 5.997091552734376 1.0185 Q 5.997091552734376 1.0574999999999999 5.971591552734376 1.0837499999999998 Q 5.946091552734376 1.1099999999999999 5.907091552734375 1.1099999999999999 Q 5.868091552734375 1.1099999999999999 5.842591552734375 1.0837499999999998 Q 5.817091552734375 1.0574999999999999 5.817091552734375 1.0185 L 5.817091552734375 0.3989999999999999 Q 5.817091552734375 0.3599999999999999 5.842591552734375 0.3337499999999999 Q 5.868091552734375 0.3074999999999999 5.907091552734375 0.3074999999999999 Q 5.946091552734376 0.3074999999999999 5.971591552734376 0.3337499999999999 Q 5.997091552734376 0.3599999999999999 5.997091552734376 0.3989999999999999 L 5.997091552734376 1.0185 M 5.905591552734376 0.20999999999999985 Q 5.854591552734376 0.20999999999999985 5.833591552734376 0.1934999999999999 Q 5.812591552734375 0.17699999999999982 5.812591552734375 0.1349999999999999 L 5.812591552734375 0.10649999999999982 Q 5.812591552734375 0.06299999999999994 5.835841552734375 0.04724999999999979 Q 5.859091552734375 0.03149999999999986 5.907091552734375 0.03149999999999986 Q 5.959591552734375 0.03149999999999986 5.980591552734375 0.04799999999999982 Q 6.001591552734375 0.06449999999999978 6.001591552734375 0.10649999999999982 L 6.001591552734375 0.1349999999999999 Q 6.001591552734375 0.17849999999999988 5.979091552734375 0.1942499999999998 Q 5.956591552734375 0.20999999999999985 5.905591552734376 0.20999999999999985 M 6.6256259765625 0.29249999999999987 Q 6.7366259765625 0.29249999999999987 6.7943759765625 0.33899999999999986 Q 6.8521259765625 0.38549999999999984 6.8738759765625 0.4627499999999999 Q 6.8956259765625 0.5399999999999998 6.8956259765625 0.6344999999999998 L 6.8956259765625 1.0185 Q 6.8956259765625 1.0574999999999999 6.8701259765625 1.0837499999999998 Q 6.8446259765625 1.1099999999999999 6.8056259765625 1.1099999999999999 Q 6.7666259765625 1.1099999999999999 6.7411259765625005 1.0837499999999998 Q 6.7156259765625 1.0574999999999999 6.7156259765625 1.0185 L 6.7156259765625 0.6344999999999998 Q 6.7156259765625 0.5849999999999999 6.7028759765625 0.5452499999999999 Q 6.6901259765625 0.5054999999999998 6.6571259765625 0.4814999999999998 Q 6.6241259765625005 0.4574999999999999 6.5626259765625 0.4574999999999999 Q 6.5026259765625 0.4574999999999999 6.4613759765625005 0.4814999999999998 Q 6.4201259765625 0.5054999999999998 6.3983759765625 0.5452499999999999 Q 6.3766259765625 0.5849999999999999 6.3766259765625 0.6344999999999998 L 6.3766259765625 1.0185 Q 6.3766259765625 1.0574999999999999 6.3511259765625 1.0837499999999998 Q 6.3256259765625 1.1099999999999999 6.2866259765625 1.1099999999999999 Q 6.2476259765625 1.1099999999999999 6.2221259765625 1.0837499999999998 Q 6.1966259765625 1.0574999999999999 6.1966259765625 1.0185 L 6.1966259765625 0.3989999999999999 Q 6.1966259765625 0.3599999999999999 6.2221259765625 0.3337499999999999 Q 6.2476259765625 0.3074999999999999 6.2866259765625 0.3074999999999999 Q 6.3256259765625 0.3074999999999999 6.3511259765625 0.3337499999999999 Q 6.3766259765625 0.3599999999999999 6.3766259765625 0.3989999999999999 L 6.3766259765625 0.4634999999999999 L 6.3541259765625 0.45899999999999985 Q 6.3676259765625005 0.4334999999999999 6.3931259765625 0.4042499999999999 Q 6.4186259765625 0.3749999999999999 6.4531259765625 0.3494999999999998 Q 6.4876259765625 0.32399999999999984 6.5311259765625005 0.3082499999999999 Q 6.5746259765625 0.29249999999999987 6.6256259765625 0.29249999999999987 M 7.2106384277343745 1.1099999999999999 Q 7.171638427734375 1.1099999999999999 7.146138427734375 1.0837499999999998 Q 7.120638427734375 1.0574999999999999 7.120638427734375 1.0185 L 7.120638427734375 0.09149999999999991 Q 7.120638427734375 0.05249999999999977 7.146138427734375 0.026249999999999885 Q 7.171638427734375 -2.220446049250313e-16 7.2106384277343745 -2.220446049250313e-16 Q 7.249638427734375 -2.220446049250313e-16 7.275138427734375 0.026249999999999885 Q 7.300638427734375 0.05249999999999977 7.300638427734375 0.09149999999999991 L 7.300638427734375 1.0185 Q 7.300638427734375 1.0574999999999999 7.275138427734375 1.0837499999999998 Q 7.249638427734375 1.1099999999999999 7.2106384277343745 1.1099999999999999 M 7.687638427734375 0.3074999999999999 Q 7.722138427734375 0.3074999999999999 7.747638427734374 0.33599999999999985 Q 7.7731384277343745 0.3644999999999998 7.7731384277343745 0.39149999999999985 Q 7.7731384277343745 0.4274999999999999 7.737138427734375 0.45899999999999985 L 7.285638427734375 0.8744999999999998 L 7.278138427734374 0.6674999999999999 L 7.621638427734375 0.33599999999999985 Q 7.650138427734375 0.3074999999999999 7.687638427734375 0.3074999999999999 M 7.710138427734375 1.1084999999999998 Q 7.671138427734375 1.1084999999999998 7.644138427734375 1.0784999999999998 L 7.366638427734375 0.7844999999999999 L 7.503138427734375 0.6584999999999999 L 7.7731384277343745 0.9524999999999999 Q 7.801638427734375 0.9824999999999999 7.801638427734375 1.0199999999999998 Q 7.801638427734375 1.059 7.770888427734375 1.0837499999999998 Q 7.740138427734375 1.1084999999999998 7.710138427734375 1.1084999999999998" fill="#f9f9f9" fill-rule="nonzero"></path></g><g></g><g clip-path="url(#SvgjsClipPath1002)"><g clip-path="url(#a20fbc1ec-ef5b-4f61-9be3-9d2710ec2a3046a0885f-2f8d-4614-95ac-8b028721516a)"><path d=" M -1.4308396945338577 0.7036226523650572 L -1.4204689102618937 0.7140747471338078 L -1.418598768835802 0.7107927598089667 C -1.4388339947406497 0.689433970675795 -1.407880566986659 0.6693650616961927 -1.436937981792853 0.6403002550266544 C -1.4469798281459982 0.630254712741837 -1.4610724156117854 0.6176737613299463 -1.471092086374898 0.6077243132686039 C -1.486090177100354 0.5928666679466884 -1.4815035258952554 0.582580890103183 -1.4856023141196344 0.5689835574814598 C -1.4916858176519412 0.5793765173434565 -1.485277072132488 0.6615703417996952 -1.470715101344342 0.6762801498547261 C -1.4545749677322013 0.6957983650151828 -1.4358883371979712 0.7000006393263812 -1.4308396945338577 0.7036226523650572 M -1.4439306845165008 0.1097825268791226 C -1.451063832643689 0.10571700203979242 -1.507241994059887 0.11092456976580714 -1.517172962462869 0.12102924695737854 C -1.5304007019173804 0.13227227110396242 -1.5330580767896334 0.14510084993788505 -1.5355084794882479 0.14858611350469256 L -1.5425381415286168 0.15579687619699528 L -1.540294711003641 0.15703870923882707 C -1.5258657937556912 0.14298308108976118 -1.5118249493333138 0.1639574933290326 -1.4922254236760704 0.14378879419428298 C -1.4854507809210777 0.13681457112899578 -1.4769834014602545 0.1270388318562428 -1.4702641976803434 0.12009417624433263 C -1.4602482228489029 0.10968643265564745 -1.4531742096284685 0.11272448849012867 -1.4439306845165008 0.1097825268791226 M -1.3963418683063056 0.07795316331883988 C -1.4010763567782891 0.07315584400843025 -1.446469789575246 0.06471803200098435 -1.456563378971801 0.07046890168280033 C -1.4694510927124775 0.0763750004948454 -1.4744258167431488 0.08587354489218935 -1.477120150932123 0.08808001610044396 L -1.4842569949909834 0.09218250025649526 L -1.4827675345271198 0.09366087292534256 C -1.4682905701674325 0.08582549778045183 -1.4619113921013562 0.10545828682274427 -1.4419607529352616 0.09395285152743993 C -1.435097407820138 0.08998342091158491 -1.4262419555337424 0.08417711225468702 -1.4193896982136351 0.08018181011712718 C -1.409192622730261 0.07422766419334471 -1.4042844254696878 0.07819709480919973 -1.3963418683063056 0.07795316331883988 M -1.5887964223368494 0.15252967259884273 L -1.5866010389236112 0.15413740287621425 L -1.5828422764130667 0.14423969785828147 C -1.5805655825030418 0.14037744926091789 -1.5694962671450476 0.13215400129045463 -1.5645954617478188 0.1146020217795648 C -1.5593176713200338 0.10067944717069521 -1.579101993560883 0.04473782538151273 -1.5861242637379078 0.03969657458074338 C -1.584875038832732 0.04981603549900332 -1.5788395824121626 0.05526383878370565 -1.584346520603619 0.06940447336123026 C -1.5880461482074093 0.07886975437352524 -1.5936528765540128 0.09125482140679372 -1.5973266326360984 0.10081250071089148 C -1.6079191728083893 0.1283989347115825 -1.5817408887747755 0.1325790334327482 -1.5887964223368494 0.15252967259884273 M -1.5469991310568636 0.10109339151797245 L -1.5413147881451457 0.09394176373242352 C -1.5384282655092214 0.09135091563026863 -1.527174153567621 0.08751453855460989 -1.5185034978648315 0.07437180552855727 C -1.5105239813847282 0.06431147951705125 -1.5120762726870178 0.013122825858212894 -1.516548350010281 0.0071058490960043685 C -1.5181523843559803 0.015772808867121707 -1.5146338574041236 0.02182304901437946 -1.5229016565546523 0.03201642856608175 C -1.5284085947461086 0.03881694284277938 -1.5362587536176877 0.047543037520650644 -1.5417878673991767 0.054417470430790746 C -1.5577690759494163 0.07433484621183616 -1.5373305738026022 0.08463540778202977 -1.5483740176388916 0.09919737857017602 Z M -1.4901372222813236 0.05710441275642067 L -1.4850368365738005 0.05070305910031174 C -1.4824681640616781 0.048393101805237815 -1.4723745746651231 0.04495218941849563 -1.4646168140853468 0.03316586331611045 C -1.4574430107097651 0.024158877831158082 -1.4588474647451701 -0.021703938288157816 -1.46284276688273 -0.027088910734434073 C -1.4642915720982004 -0.019334846086329842 -1.4611352464502114 -0.013905522459988077 -1.4685381975894645 -0.004780267161528115 C -1.4734759623034144 0.0013254119608113006 -1.480524104002144 0.00913121965232519 -1.4854766524427825 0.015296033681418408 C -1.499805779535585 0.03313999179440562 -1.4814776543735504 0.042368733179684884 -1.4913605756647947 0.05541167605059047 Z M -1.6028594423492595 0.3454536099517456 C -1.5965172235999043 0.32270884644152964 -1.5699212992873413 0.3356593910206321 -1.561978742123959 0.3036563186717598 C -1.5592178811648867 0.2925943951771098 -1.556416364957421 0.2776923986751288 -1.553733118563463 0.2666896100872327 C -1.5497119449041983 0.250235322282962 -1.5407456146676395 0.24911545498631021 -1.533106123901371 0.24068133891053622 C -1.5427783770873045 0.24078852092902764 -1.5966170137550517 0.2792483859090906 -1.6007010182527424 0.2953367764778215 C -1.6074313098276698 0.3145186618561155 -1.6025711596788341 0.3291065041659664 -1.602974016231095 0.3340812281966376 L -1.6058605388670195 0.34554231231187643 Z M -1.4135538221033606 0.6202941768854782 C -1.417198010732069 0.63347017329658 -1.3862741504314553 0.7218103321235513 -1.3660204448682471 0.7337334076978049 C -1.3426362851787546 0.7504611944458124 -1.3209152947417153 0.7496370016829299 -1.314306968911968 0.7521502352199705 L -1.299903923185723 0.7605917431590886 L -1.2988025355474315 0.7564707793446767 C -1.3272094663793328 0.7388818405170657 -1.2990760344911685 0.7078766697196653 -1.3394171286923395 0.6844075036017141 C -1.353332311437865 0.6763060213764308 -1.3724957171577983 0.666593112942104 -1.386359156859914 0.6585988127353122 C -1.407130292857219 0.6466387778443373 -1.4050975304375537 0.6340134752523813 -1.4135538221033603 0.6202941768854782 M -1.4957328628329107 0.567641934284481 C -1.4989741949093585 0.5538154538990864 -1.5043259039705856 0.5356869090473462 -1.507615283158771 0.521963914748771 C -1.5125271763510162 0.501436710241826 -1.503206036673934 0.4950907955607988 -1.4995433683868646 0.48138628092058433 C -1.5101876516025654 0.48701888078889255 -1.5480229041300402 0.5602463750085723 -1.5434140773349088 0.5804298578700102 C -1.5399694690164945 0.6055326257870377 -1.526301913693001 0.6189266821667944 -1.523925429627829 0.6246701599852662 L -1.520580611464562 0.6390251585997737 L -1.5172838404130324 0.6372141520804357 C -1.5232268985417987 0.6084117565596179 -1.4863636760440908 0.6076393068401451 -1.4957328628329107 0.567641934284481 M -1.5429631736709104 0.5032070615127706 C -1.5458866556235558 0.4907813392311089 -1.5506950627289817 0.4744970642837557 -1.5536333284083157 0.46216743622556905 C -1.558042574893153 0.44373582497671515 -1.5496860733824935 0.43804039426998087 -1.5463966941943084 0.4257255499384827 C -1.5559543734984063 0.43077419260259625 -1.5899569448818944 0.4965876478880068 -1.5857990217507614 0.5147014090130585 C -1.5827166147362148 0.5372502881446523 -1.5704091622680607 0.54930272132743 -1.568287697488265 0.5544659378733792 L -1.5652976887655212 0.5673462597507114 L -1.5623261597011382 0.5657237457466515 C -1.5676483013089886 0.5398411362468072 -1.5345327535268085 0.5391647807508095 -1.5429631736709104 0.5032070615127706 M -1.598439108069406 0.4387167497659785 L -1.5981766969206856 0.45148988962481934 L -1.5950684183844341 0.45055851484344556 C -1.5949168851858773 0.4250381066474687 -1.5634903781778553 0.4310329078196446 -1.5642406523072954 0.3953708631153752 C -1.56451045531936 0.3830523228522049 -1.5657855517462407 0.36670152113475357 -1.5661107937333871 0.35446059543669783 C -1.5665875689190905 0.33614725400135165 -1.557543624117417 0.33244393046588916 -1.5519590713608462 0.32146701339969785 C -1.5620009177139917 0.3243313604455895 -1.6073204318775063 0.3796964168939215 -1.6070210614120646 0.3976512529570722 C -1.608595528304387 0.41957182370440577 -1.5994259218258615 0.4334241756115052 -1.5984391080694058 0.4387167497659786 M -1.6335689386128902 0.12530543990201948 C -1.6345742320277064 0.1367960914706353 -1.6367511357825841 0.15210833638822135 -1.6377009902223185 0.1636839943852959 C -1.6405098982931285 0.19717283126635973 -1.6106098110656915 0.19338080537076638 -1.6119662179893588 0.21740066530786314 L -1.6090723034900902 0.2184650936294332 L -1.6080965775286509 0.20646070755839305 C -1.6068695282135077 0.20153403063945935 -1.5973894634745243 0.1890454775193717 -1.59762600310154 0.16832978049714858 C -1.5962954676995773 0.1514504605505843 -1.6356756196659976 0.09672110434985673 -1.6449708878213751 0.09344281295668778 C -1.6403472772995553 0.10409079210406055 -1.6320536066273217 0.10810826983165309 -1.6335689386128902 0.12530543990201962 M -1.5708711537270756 0.1975128569801947 C -1.5823913727490684 0.2142776030449233 -1.5815265247377925 0.22961941541588632 -1.5832081736486066 0.2343021608444602 L -1.588981218920455 0.24463228986803087 L -1.5860614328994818 0.24532712502238907 C -1.574005303785032 0.22502906827911545 -1.551733619528847 0.2444770607378019 -1.5356711004818209 0.21567466521698403 C -1.5301382907686598 0.2057178252922974 -1.5235003974855355 0.19206505369549237 -1.5180673779275216 0.1821451730875269 C -1.5098845852054517 0.16729861556062772 -1.5009441264905976 0.1685737119875085 -1.49133470414309 0.16241628982175943 C -1.5007038909319097 0.1600102383032104 -1.5627253203217268 0.1830432844838516 -1.5708711537270756 0.19751285698019483 M -1.4776338854345474 0.709927911797691 L -1.474961726835606 0.7066015732927845 L -1.4903589781816506 0.7000819498231678 C -1.4963463874904823 0.6962899239275745 -1.508646448095292 0.6783831349761613 -1.536048085512377 0.6696348647082574 C -1.5577173329060066 0.6605280890681579 -1.6470221298994008 0.6885469470744867 -1.6554155907267816 0.6993501553520884 C -1.6393345920213949 0.6979198297949786 -1.6304421804182783 0.6887391355214368 -1.6084439951058302 0.6982487677137972 C -1.5937415789141436 0.7046057701898406 -1.5745301260824727 0.7141227942455453 -1.5596761766922294 0.720457621131556 C -1.5167590181155917 0.7387561788402137 -1.5086981911387016 0.6976906820313074 -1.4776338854345474 0.709927911797691 M -1.6765304483695933 0.19749068139016174 C -1.6748266238687468 0.2087447933317619 -1.6733260756098667 0.22392398470915176 -1.6715705080656107 0.23525201528419437 C -1.666462730494743 0.2680127536258509 -1.638650844662053 0.25743130124857627 -1.634374651717412 0.28076741382633114 L -1.6313550755412916 0.28111483140351023 L -1.633217825104039 0.2693876402078789 C -1.6331697779923016 0.2643500853387817 -1.6270086598948803 0.2501983629662407 -1.6320536066273217 0.23038077734034246 C -1.6346998937045585 0.2138895302193507 -1.6852011040723829 0.17058429881714057 -1.6948437898049395 0.16958639726566865 C -1.687954573168111 0.1787375240858335 -1.6790732493600107 0.18064832076031867 -1.6765304483695933 0.19749068139016174 M -1.3961792473127324 0.7567849335368068 L -1.394139093029723 0.7530409547529509 L -1.4104270639087484 0.7492748003790624 C -1.4169503833100372 0.7465767702584161 -1.4321776217991644 0.7310612490988634 -1.4606732549911965 0.7271583452531064 C -1.4835806394949858 0.721928601937059 -1.5667354061859753 0.7649122872837948 -1.5731219761153956 0.777005375714966 C -1.557569495639122 0.7728326688571443 -1.5503698207418355 0.7622512164798697 -1.527052187822441 0.7678135936464078 C -1.5114738358244626 0.7715538764985914 -1.4908985842057798 0.7776152044408654 -1.4751760908725888 0.781288960522951 C -1.4297530906222549 0.7919184600119632 -1.42890672226934 0.7500731216202399 -1.3961792473127324 0.7567849335368068 M -1.298495773218646 0.7796405749971862 L -1.3151939925132763 0.7788459496876808 C -1.3220795132184326 0.7773564892238171 -1.3398310730396168 0.7648124971286476 -1.3685854214486972 0.7660691138971679 C -1.3920656753616647 0.7650194693022863 -1.4661838891143248 0.8222029241333004 -1.4702900692020484 0.8352347792091896 C -1.4557133146872139 0.8283455625723611 -1.450527922551232 0.8166405469667626 -1.4266189405642986 0.8179526027103645 C -1.4106155564240264 0.8188396263116728 -1.389293726607576 0.8211274080167141 -1.373175768585468 0.821933121121236 C -1.3265700702000565 0.8242726458696867 -1.3332301390732135 0.7829373460487157 -1.2998521801423133 0.7836950120414999 Z M -1.2647667007788943 0.830308102290256 C -1.2647667007788943 0.8430701543540805 -1.2552348929965014 0.8535776880979127 -1.2429274405283475 0.8553295597104967 L -1.2429274405283475 0.8052792530066709 C -1.2552348929965014 0.8070274286875827 -1.2647667007788943 0.817531266499743 -1.2647667007788943 0.8303081022902559 M -1.511048803682169 0.6556198918075847 C -1.580288387627633 0.5841294854738007 -1.623124235707484 0.4853704952631277 -1.623124235707484 0.3762518085755073 C -1.623124235707484 0.2671442096829032 -1.580288387627633 0.16837413167721388 -1.511048803682169 0.09688372534342984 C -1.4943462374974477 0.07962676008906804 -1.4760721957162988 0.06396347246583271 -1.4564635888166537 0.0500969263060843 L -1.4554361198118049 0.04980864363565918 C -1.4520025992884071 0.04943535453677518 -1.441820307531721 0.05252884934633821 -1.4286184395989145 0.04750607820392953 C -1.4175491242409204 0.04437562407764528 -1.3918993584364194 0.006326007513187411 -1.3920028445232386 -0.0003784125400350495 C -1.3977241467516777 0.005076782608011546 -1.3983228876825609 0.011311819338875095 -1.4096583101209477 0.014394226353421836 C -1.417223882253774 0.016463948089808035 -1.427505964165607 0.018692594888095333 -1.435123279341843 0.020810363736219056 C -1.4504133486693962 0.025056989227483027 -1.4505279225512318 0.03511731523898904 -1.454412346738628 0.04248330706152073 C -1.4761637694184477 0.05737646452722628 -1.4963604066402598 0.07442182704304161 -1.5146966882425497 0.09336150245990142 C -1.584823295789322 0.16577589171171486 -1.6281950539616303 0.2657951946225801 -1.6281950539616303 0.37625180857550744 C -1.6281950539616303 0.4867305981184674 -1.584823295789322 0.5867499010293327 -1.5146966882425497 0.65915320248613 C -1.4450431599498084 0.7310538572355191 -1.3490413347665355 0.7756600565863149 -1.2429274405283475 0.7763105405606077 L -1.2429274405283475 0.7712323304431171 C -1.3476331847994585 0.7705818464688243 -1.4423599135558505 0.7265559083905513 -1.511048803682169 0.6556198918075848 M -1.2962301671036374 0.8210017463398621 C -1.3042243445561583 0.8210200583513015 -1.3106986341614293 0.8274993052993026 -1.3107108273949968 0.8354934944262379 C -1.3107047379904404 0.84349201257962 -1.3042286665743115 0.8499780014098635 -1.2962301671036385 0.8499963303076301 C -1.2882255356468986 0.8499841187966894 -1.281739542733186 0.8434981258829768 -1.2817273312222452 0.8354934944262379 C -1.2817456432785117 0.8274931933604986 -1.28822985437238 0.8210139396145617 -1.2962301671036376 0.8210017463398621 M -1.7001659314127897 0.27595161485756103 C -1.6960708391200827 0.28657741841490114 -1.6913363506480992 0.30108764615963757 -1.6871784275169661 0.3117614968287152 C -1.6751555617875653 0.34265578967595195 -1.6502782457025371 0.3263382513435497 -1.6410495043172577 0.34818859938911306 L -1.638026232209465 0.34788183706032727 L -1.642372647855876 0.3368236094973493 C -1.6434296843141019 0.3319191081684483 -1.6404618511813909 0.3167473086544027 -1.6496425454549328 0.2984967980574826 C -1.6557888798256655 0.2829591013078973 -1.7144100520771337 0.2515473780265639 -1.7240675215363788 0.2526672453232157 C -1.7153709943118844 0.26010715577918986 -1.7062679146034572 0.2600554127357802 -1.7001659314127897 0.2759516148575609 M -1.5469104286967328 0.6466498656393537 L -1.5441532636693325 0.6440848890589036 L -1.5568155255780096 0.636412134907586 C -1.5615278384599605 0.6323355222732395 -1.5700580487592095 0.6150496498427422 -1.5929284739462775 0.6038842402612729 C -1.6107465605375597 0.5931475587537692 -1.692552312168226 0.6062533324631008 -1.7012562312560648 0.6146504892221535 C -1.6870416780450976 0.6154562023266753 -1.6780494762868339 0.6085558978948303 -1.659987458205192 0.619699131886267 C -1.6479091535007093 0.6271390423422412 -1.6323160177760423 0.6379422506198429 -1.6201157473263796 0.6453821610758171 C -1.584875038832732 0.6669035712025619 -1.5725601945012335 0.6319585372426835 -1.5469104286967328 0.6466498656393537 M -1.7216060310427481 0.36103565788139613 C -1.7142548229469048 0.3709555384893617 -1.7050889124000514 0.3847339717630187 -1.6976231304223726 0.39468341982436117 C -1.6760314975938573 0.4234599438234741 -1.65480206606921 0.3991554971476242 -1.6388023778606098 0.4193278922140459 L -1.6357273627094073 0.41812301848893535 L -1.643492515152528 0.40783354471375804 C -1.646020532416257 0.4030140498133158 -1.6473215003648425 0.3862862630653084 -1.6622308887301678 0.3698763264411032 C -1.6731893261379984 0.35544001732980907 -1.7436411756719172 0.33965838908986395 -1.7533725637646047 0.3436536912274239 C -1.7421110599596603 0.34890191420183186 -1.7326309952206769 0.3462038840811855 -1.7216060310427481 0.3610356578813962 M -1.714761165585985 0.44199504115914745 C -1.7063159617151946 0.45338220664094386 -1.695797340176346 0.46920818606095444 -1.6872301705603758 0.48062861492779996 C -1.6624452527671505 0.5136591562815211 -1.6380779752528747 0.4857585680887001 -1.619690715184086 0.5089061881511769 L -1.616186971958918 0.5075313015691489 L -1.6250941672887231 0.49572279987673107 C -1.6279843858563197 0.4901752064368815 -1.6295108056369045 0.47098592919524335 -1.64661927334714 0.45214776546245644 C -1.6591965288273587 0.4355604241179895 -1.74003394635993 0.41747253451464256 -1.7512547949164812 0.42205179385639713 C -1.7383079462690507 0.4280613787552615 -1.7274345152896786 0.4249678839456985 -1.7147611655859851 0.44199504115914745 M -1.6577957707236257 0.5673462597507114 C -1.6269827883731756 0.5948402954595994 -1.6085955283043871 0.5626635143221376 -1.5860133857877443 0.5817271298869238 L -1.582842276413067 0.579672191877226 L -1.5939152877027332 0.569859493287752 C -1.5978255834118344 0.5649993431389164 -1.6031107657029635 0.5464864213932759 -1.62362318648322 0.5314033242393611 C -1.6392348018662477 0.5176433706240646 -1.7220495428434024 0.5158878030798084 -1.7321172607182527 0.5225848312696868 C -1.7182649088111532 0.5259185616379375 -1.708197190936303 0.520747953228644 -1.6924377382863907 0.5349403308495783 C -1.6818710696358043 0.5444203955885617 -1.6684400539393265 0.5578403234900232 -1.657795770723626 0.5673462597507114" fill="#aac527" transform="matrix(1,0,0,1,0,0)" fill-rule="nonzero"></path></g><g clip-path="url(#a20fbc1ec-ef5b-4f61-9be3-9d2710ec2a3046a0885f-2f8d-4614-95ac-8b028721516a)"><path d=" M -1.414884357505323 0.11174137066534534 C -1.414884357505323 0.11174137066534534 -1.7405920320424197 0.21162392410434222 -1.786192437013015 0.20945441221280878 C -1.786192437013015 0.20945441221280878 -1.7668959777528856 0.38967912834031304 -1.7601361187245812 0.38967912834031304 C -1.753376259696277 0.38967912834031304 -1.627681319459206 0.5438475261793834 -1.414884357505323 0.5264766473204275 Z" fill="#d4d6c9" transform="matrix(1,0,0,1,0,0)" fill-rule="nonzero"></path></g><g clip-path="url(#a20fbc1ec-ef5b-4f61-9be3-9d2710ec2a3046a0885f-2f8d-4614-95ac-8b028721516a)"><path d=" M -0.7698777539505828 0.6762801498547261 C -0.7553157831624366 0.6615703417996952 -0.7489070376429836 0.5793802132751286 -0.7549905411752902 0.5689835574814598 C -0.7590893293996694 0.582580890103183 -0.7545063741262428 0.5928703638783605 -0.7695007689200268 0.6077243132686038 C -0.7795204396831394 0.6176774572616184 -0.7936130271489266 0.6302547127418369 -0.8036548735020719 0.6403002550266544 C -0.8327122883082658 0.6693687576278649 -0.8017625564859472 0.689433970675795 -0.8219940864591229 0.7107927598089667 L -0.8201239450330309 0.7140747471338078 L -0.8097531607610671 0.7036226523650572 C -0.8047082140286257 0.7000006393263812 -0.7860178875627233 0.6957983650151828 -0.7698777539505828 0.6762801498547261 M -0.7703286576145811 0.12009417624433263 C -0.76360945383467 0.12703883185624287 -0.7551420743738471 0.13681457112899578 -0.7483711275505265 0.14379249012595519 C -0.728767905961611 0.16395749332903253 -0.7147270615392336 0.1429867770214334 -0.7002981442912839 0.15703870923882712 L -0.698054713766308 0.15579687619699534 L -0.7050843758066769 0.14858980943636468 C -0.7075347785052915 0.1451008499378851 -0.7101921533775444 0.13227596703563463 -0.7234235887637279 0.1210292469573786 C -0.7333508612350377 0.11092456976580714 -0.7895290226512357 0.10571700203979256 -0.796662170778424 0.1097825268791226 C -0.7874186456664563 0.11272448849012878 -0.7803446324460217 0.10969012858731964 -0.7703286576145811 0.12009417624433263 M -0.8212068530129617 0.08018550604879932 C -0.8143508997611821 0.08418080818635916 -0.8054954474747866 0.08998342091158491 -0.7986357982913352 0.09395654745911207 C -0.7786851591252406 0.10546198275441629 -0.7723022851274923 0.08582549778045183 -0.757825320767805 0.09366087292534256 L -0.7563358603039414 0.09218250025649526 L -0.7634727043628018 0.08808001610044383 C -0.7661707344834481 0.08587354489218922 -0.7711417625824473 0.07637500049484526 -0.7840294763231237 0.07047259761447233 C -0.7941230657196787 0.06472172793265622 -0.8395164985166357 0.07315953994010226 -0.8442509869886192 0.07795316331883974 C -0.8363084298252369 0.07819709480919948 -0.8314002325646639 0.07423136012501659 -0.8212068530129617 0.08018550604879918 M -0.6432662226588264 0.10081250071089135 C -0.646939978740912 0.09125851733846548 -0.6525504030191875 0.07886975437352499 -0.6562463346913059 0.06940447336123014 C -0.661756968814434 0.05526383878370551 -0.6557215123938651 0.049816035499003194 -0.654468591557017 0.03969657458074326 C -0.6614908617340418 0.04473782538151261 -0.6812751839748907 0.10068314310236723 -0.675997393547106 0.11460202177956466 C -0.6711002840815494 0.13215769722212659 -0.6600309687235548 0.14038114519258976 -0.6577542748135301 0.14423969785828128 L -0.6539955123029859 0.15414109880788618 L -0.6518001288897475 0.15252967259884262 C -0.6588519665201491 0.13257903343274807 -0.6326736824865355 0.1283989347115823 -0.6432662226588264 0.10081250071089135 M -0.6922188376560332 0.09919737857017563 C -0.7032659774239947 0.0846354077820295 -0.6828274752771806 0.0743348462118359 -0.6988049878957479 0.0544211663624625 C -0.7043341016772369 0.047543037520650394 -0.7121842605488162 0.03882063877445113 -0.7176911987402723 0.03201642856608137 C -0.725958997890801 0.02182304901437908 -0.7224404709389445 0.015772808867121457 -0.7240482012163159 0.007105849096003987 C -0.728520278539579 0.013122825858212513 -0.7300688739101966 0.064315175448723 -0.7220893574300933 0.07437550146022902 C -0.713422397658976 0.08751823448628178 -0.7021645897857036 0.09135091563026826 -0.6992817630814512 0.0939454596640954 L -0.6935937242380612 0.10109708744964421 Z M -0.7492322796301301 0.05541537198226247 C -0.7591152009213742 0.042372429111357024 -0.7407907716910118 0.03313999179440562 -0.7551162028521423 0.015296033681418533 C -0.7600724472244529 0.00913121965232519 -0.7671205889231825 0.0013254119608113006 -0.7720546577054603 -0.004780267161527987 C -0.7794576088447134 -0.01390182652831594 -0.7763012831967244 -0.019334846086329842 -0.7777500884121946 -0.027088910734434073 C -0.7817490864814267 -0.02170393828815769 -0.7831498445851595 0.024158877831158082 -0.775976041209578 0.03316586331611045 C -0.7682182806298017 0.04495218941849563 -0.7581246912332464 0.048393101805237815 -0.7555560187211243 0.050706755031983866 L -0.7504593289452732 0.05710441275642067 Z M -0.6347323164279051 0.3455423123118764 L -0.6376188390638295 0.33408122819663755 C -0.6380216956160905 0.3291102000976384 -0.633161545467255 0.31451866185611543 -0.6398918370421824 0.29534047240949357 C -0.6439758415398731 0.27924838590909057 -0.6978181741392924 0.24078852092902758 -0.7074867313935538 0.24068133891053617 C -0.6998509365589574 0.24911915091798226 -0.6908809103907263 0.25023901821463407 -0.6868597367314617 0.26668961008723263 C -0.6841764903375038 0.2776923986751288 -0.6813749741300381 0.2925980911087819 -0.6786178091026378 0.30365631867175974 C -0.6706752519392556 0.3356593910206321 -0.6440756316950205 0.3227088464415296 -0.6377334129456653 0.3454536099517455 Z M -0.8542336984350107 0.6585988127353122 C -0.8681008340687986 0.666593112942104 -0.8872605438570597 0.6763060213764308 -0.9011757266025852 0.6844075036017141 C -0.9415168208037562 0.7078766697196653 -0.9133870848472639 0.7388818405170657 -0.941790319747493 0.7564707793446767 L -0.9406889321092018 0.7605917431590886 L -0.9262858863829568 0.7521539311516424 C -0.9196775605532093 0.7496370016829299 -0.8979565701161701 0.7504611944458123 -0.8745724104266777 0.7337334076978049 C -0.8543224007951415 0.7218103321235513 -0.8233948445628556 0.63347017329658 -0.8270390331915642 0.6202941768854782 C -0.8354953248573709 0.6340134752523813 -0.8334625624377059 0.6466387778443373 -0.8542336984350106 0.6585988127353122 M -0.7233090148818921 0.6372141520804356 L -0.7200122438303627 0.6390251585997737 L -0.7166674256670957 0.6246701599852662 C -0.7142909416019236 0.6189266821667944 -0.7006233862784301 0.6055326257870377 -0.697178777960016 0.5804335538016824 C -0.6925699511648844 0.5602463750085723 -0.7304088996240314 0.48701888078889255 -0.7410531828397322 0.4813899768522564 C -0.7373868186209909 0.4950907955607988 -0.7280693748755807 0.501436710241826 -0.7329775721361538 0.521963914748771 C -0.7362669513243392 0.5356869090473462 -0.7416223563172384 0.5538154538990864 -0.7448599924620141 0.567641934284481 C -0.7542291792508338 0.6076393068401451 -0.7173659567531261 0.6084117565596179 -0.7233090148818921 0.6372141520804356 M -0.6782666955937866 0.5657237457466515 L -0.6752951665294036 0.5673499556823836 L -0.6723051578066599 0.5544696338050513 C -0.6701873889585361 0.5493064172591021 -0.65787624055871 0.5372502881446523 -0.6547938335441634 0.5147014090130585 C -0.6506359104130304 0.4965876478880068 -0.6846384817965185 0.4307778885342684 -0.6941961611006164 0.4257255499384827 C -0.6909067819124313 0.43804039426998087 -0.6825502804017716 0.44373952090838725 -0.6869595268866089 0.4621711321572412 C -0.6898977925659429 0.47450076021542786 -0.6947098956030409 0.4907813392311089 -0.6976296816240144 0.5032107574444428 C -0.7060601017681163 0.5391684766824817 -0.6729445539859364 0.5398411362468072 -0.6782666955937866 0.5657237457466515 M -0.6335754898145323 0.39765125295707215 C -0.6332724234174185 0.3797001128255936 -0.6785919375809331 0.3243313604455895 -0.6886374798657506 0.32147070933136995 C -0.6830492311775076 0.3324439304658891 -0.6740052863758343 0.33614725400135165 -0.6744820615615374 0.35446059543669783 C -0.6748073035486839 0.36670152113475357 -0.6760823999755647 0.383056018783877 -0.6763522029876292 0.3953708631153752 C -0.6771024771170693 0.4310329078196446 -0.6456759701090473 0.4250381066474687 -0.6455244369104907 0.45055851484344556 L -0.6424161583742392 0.45148988962481934 L -0.6421537472255188 0.4387167497659786 C -0.6411669334690631 0.4334241756115052 -0.6319973269905377 0.4195718237044058 -0.6335754898145323 0.39765125295707215 M -0.5956256634052217 0.09344281295668752 C -0.604917235628927 0.09672110434985648 -0.6443010835270195 0.15145415648225632 -0.6429668521933849 0.16832978049714845 C -0.6432070877520726 0.18904917345104358 -0.6337233270814169 0.20153403063945924 -0.632499973697946 0.20646070755839288 L -0.6315205518048346 0.21846509362943314 L -0.6286266373055658 0.21740436123953516 C -0.6299830442292331 0.19338080537076632 -0.6000829570017963 0.1971728312663596 -0.6028918650726063 0.1636839943852957 C -0.6038417195123407 0.15210833638822122 -0.6060186232672184 0.1367960914706351 -0.6070239166820344 0.12530543990201928 C -0.6085392486676029 0.10810826983165298 -0.6002455779953695 0.10409448803573243 -0.5956256634052217 0.09344281295668752 M -0.7492581511518348 0.16241628982175915 C -0.7396487288043272 0.16857371198750823 -0.7307082700894731 0.16730231149229954 -0.7225254773674032 0.18214517308752665 C -0.7170924578093893 0.19206505369549212 -0.7104545645262648 0.20571782529229707 -0.7049217548131037 0.21567466521698378 C -0.6888592357660777 0.24447706073780162 -0.6665912474415652 0.22502906827911517 -0.654531422395443 0.2453271250223888 L -0.6516116363744695 0.2446322898680306 L -0.6573846816463182 0.23430585677613208 C -0.659066330557132 0.22961941541588604 -0.6582051784775285 0.21428129897659517 -0.6697217015678492 0.19751285698019444 C -0.677867534973198 0.18304698041552347 -0.7398889643630149 0.16001023830321015 -0.7492581511518348 0.1624162898217591 M -0.6809166786026954 0.720457621131556 C -0.6660627292124519 0.7141227942455453 -0.6468512763807812 0.7046057701898406 -0.6321488601890946 0.6982487677137971 C -0.6101506748766465 0.6887428314531089 -0.6012582632735299 0.6979235257266507 -0.5851809604998155 0.6993538512837605 C -0.5935744213271958 0.6885469470744867 -0.682875522388918 0.6605280890681579 -0.7045447697825478 0.6696348647082574 C -0.7319464071996327 0.6783868309078335 -0.7442464678044423 0.6962899239275745 -0.7502338771132739 0.7000819498231678 L -0.7656311284593187 0.7066052692244567 L -0.7629589698603774 0.709927911797691 C -0.7318946641562232 0.6976906820313074 -0.7238338371793331 0.7387561788402137 -0.6809166786026954 0.720457621131556 M -0.5457527614216573 0.16958639726566865 C -0.555395447154214 0.17058429881714063 -0.6058929615903663 0.21388953021935062 -0.6085392486676029 0.23038077734034246 C -0.6135878913317165 0.25020205889791286 -0.6074267732342953 0.26435378127045384 -0.6073750301908856 0.269387640207879 L -0.6092377797536332 0.2811185273351824 L -0.6062182035775128 0.2807674138263312 C -0.6019420106328719 0.25743130124857627 -0.5741338207318538 0.268012753625851 -0.5690186512976421 0.23525201528419443 C -0.5672667796850579 0.22392398470915187 -0.565766231426178 0.2087484892634341 -0.5640661028570033 0.19749437732183395 C -0.5615196059349141 0.18064832076031878 -0.5526382821268137 0.17873752408583368 -0.5457527614216573 0.16958639726566876 M -0.765416764422336 0.7812926564546231 C -0.7496942710891448 0.7776152044408654 -0.7291190194704622 0.7715538764985913 -0.7135406674724836 0.7678135936464077 C -0.6902230345530893 0.7622549124115418 -0.6830270555874751 0.7728363647888165 -0.6674708791795292 0.777005375714966 C -0.6738574491089495 0.7649159832154669 -0.757012215799939 0.721928601937059 -0.7799232962354001 0.7271583452531064 C -0.8084152334957602 0.7310612490988634 -0.8236424719848876 0.7465767702584161 -0.8301657913861764 0.7492748003790624 L -0.8464537622652016 0.7530409547529509 L -0.8444136079821923 0.7567886294684787 C -0.8116861330255849 0.7500731216202399 -0.8108397646726697 0.7919184600119632 -0.765416764422336 0.7812926564546231 M -0.9407406751526114 0.7836950120414999 C -0.9073627162217112 0.7829373460487157 -0.9140227850948683 0.8242726458696866 -0.8674170867094566 0.8219331211212357 C -0.8512991286873487 0.821127408016714 -0.8299809948025705 0.8188396263116727 -0.8139739147306262 0.8179526027103645 C -0.7900649327436928 0.8166442428984345 -0.7848795406077109 0.8283455625723611 -0.7703027860928764 0.8352347792091895 C -0.7744126621122718 0.8222066200649726 -0.8485308758649321 0.7650194693022863 -0.8720074338462275 0.76607280982884 C -0.90076547818698 0.7648161930603198 -0.918513342076492 0.7773564892238171 -0.9253988627816484 0.7788496456193528 L -0.9420970820762788 0.7796442709288584 Z M -0.9976654147665774 0.8052792530066708 L -0.9976654147665774 0.8553295597104967 C -0.9853579622984234 0.8535813840295847 -0.9758261545160304 0.8430701543540804 -0.9758261545160304 0.8303081022902559 C -0.9758261545160304 0.8175349624314151 -0.9853579622984234 0.8070311246192549 -0.9976654147665774 0.8052792530066708 M -0.9976654147665774 0.7712360263747893 L -0.9976654147665774 0.7763142364922797 C -0.891551520528389 0.7756637525179869 -0.7955496953451164 0.7310538572355191 -0.7258998629840472 0.6591532024861299 C -0.6557695595056026 0.5867535969610046 -0.6123978013332945 0.48673429405013935 -0.6123978013332945 0.3762518085755072 C -0.6123978013332945 0.26579519462258 -0.6557695595056026 0.16577589171171467 -0.7258998629840472 0.09336150245990103 C -0.7442348610389924 0.07442189253185545 -0.764430266196169 0.05737652481918258 -0.7861805085562961 0.04248330706152112 C -0.7900649327436928 0.035121011170661055 -0.7901795066255284 0.025060685159155036 -0.8054695759530819 0.020810363736218924 C -0.8130868911293176 0.018692594888095083 -0.8233689730411509 0.01646394808980791 -0.8309345451739769 0.014397922285093713 C -0.8422699676123637 0.011311819338874846 -0.8428687085432469 0.005076782608011289 -0.8485937067033581 -0.0003784125400353028 C -0.8486934968585054 0.006329703444859419 -0.8230437310540044 0.04437562407764516 -0.81197441569601 0.04750607820392928 C -0.7987725477632035 0.05252884934633807 -0.7885902560065177 0.049435354536775056 -0.7851567354831197 0.04980864363565893 L -0.7841292664782709 0.05009692630608416 C -0.764520590964717 0.06396476099753945 -0.7462465544897807 0.07962928139652996 -0.7295440516127558 0.09688742127510172 C -0.6603044676672918 0.16837413167721388 -0.6174686195874406 0.2671442096829031 -0.6174686195874406 0.3762518085755072 C -0.6174686195874406 0.4853704952631277 -0.6603044676672918 0.5841331814054728 -0.7295440516127558 0.6556198918075847 C -0.7982329417390743 0.7265559083905512 -0.8929596704954661 0.7705855424004963 -0.9976654147665773 0.7712360263747892 M -0.9588655240726794 0.8354934944262378 C -0.9588533181138879 0.8434987270691907 -0.9523679174641654 0.8499857804713729 -0.9443626881912879 0.8500000262393022 C -0.9363635913559607 0.8499796641870787 -0.929888111293358 0.8434926148645376 -0.9298820278999279 0.8354934944262378 C -0.9298942211334955 0.8274993052993023 -0.9363685107387666 0.8210200583513014 -0.9443626881912873 0.821001746339862 C -0.9523630009225449 0.8210139396145617 -0.958847212016413 0.8274931933604988 -0.9588655240726796 0.8354934944262378 M -0.5165290296902181 0.2526672453232158 C -0.5261828032177909 0.25154737802656396 -0.5848039754692593 0.2829591013078973 -0.590954005771664 0.2984967980574826 C -0.600134700045206 0.31674730865440276 -0.5971631709808227 0.3319191081684483 -0.5982202074390488 0.33682360949734935 L -0.6025666230854598 0.34788553299199937 L -0.5995470469093391 0.34818859938911306 C -0.5903146095923875 0.3263419472752218 -0.5654409894390315 0.34265578967595195 -0.5534144277779585 0.3117614968287152 C -0.5492565046468256 0.30109134209130967 -0.5445220161748419 0.28658111434657324 -0.5404232279504628 0.275951614857561 C -0.5343286366231399 0.26005541273578026 -0.5252218609830404 0.26010715577918986 -0.5165290296902181 0.2526672453232158 M -0.6204771079685449 0.6453821610758171 C -0.6082768375188823 0.6379422506198429 -0.5926837017942155 0.6271390423422412 -0.580609093021405 0.6196991318862671 C -0.562547074939763 0.6085558978948303 -0.5535511772498269 0.6154598982583475 -0.5393366240388602 0.6146504892221535 C -0.5480405431266986 0.6062533324631008 -0.6298462947573651 0.5931512546854414 -0.6476643813486471 0.6038842402612729 C -0.6705348065357151 0.6150533457744144 -0.6790687127666362 0.6323355222732395 -0.683777329716915 0.636412134907586 L -0.6964395916255923 0.6440848890589036 L -0.693682426598192 0.6466498656393537 C -0.6680363567253631 0.6319622331743556 -0.6557215123938651 0.6669072671342341 -0.6204771079685449 0.6453821610758171 M -0.48722029153031987 0.34365738715909605 C -0.49695167962300735 0.33965838908986407 -0.5674035291569262 0.3554437132614813 -0.578361966564757 0.3698763264411032 C -0.5932713549300821 0.3862862630653084 -0.5945723228786679 0.40301404981331573 -0.5971003401423969 0.4078372406454302 L -0.6048654925855175 0.41812301848893535 L -0.601790477434315 0.4193278922140459 C -0.5857907892257148 0.39915549714762427 -0.5645650536327393 0.4234599438234741 -0.5429697248725522 0.39468341982436117 C -0.5355039428948734 0.3847339717630187 -0.5263417282796921 0.3709555384893617 -0.5189868242521767 0.3610356578813962 C -0.5079655560059197 0.34620388408118546 -0.49848549126693653 0.3489019142018318 -0.48722029153031987 0.34365738715909594 M -0.4893417563101159 0.4220517938563971 C -0.5005589089349949 0.41747253451464256 -0.5813963264675661 0.4355604241179895 -0.5939735819477847 0.45215146139412843 C -0.6110820496580203 0.47098592919524324 -0.6126084694386051 0.4901752064368815 -0.6154986880062014 0.49572279987673096 L -0.6244058833360067 0.5075313015691489 L -0.6209021401108388 0.5089061881511769 C -0.6025148800420501 0.4857585680887001 -0.5781512984594464 0.513659156281521 -0.5533626847345487 0.480632310859472 C -0.5447955151185786 0.46920818606095444 -0.53427689357973 0.45338220664094386 -0.5258353856406119 0.4419950411591474 C -0.5131546440735739 0.4249678839456984 -0.5022886049575461 0.42806137875526146 -0.4893417563101159 0.4220517938563971 M -0.5481551170085341 0.5349403308495783 C -0.5323956643586218 0.5207479532286441 -0.5223242505520993 0.5259222575696098 -0.5084792905083444 0.5225848312696868 C -0.5185470083831945 0.5158878030798085 -0.6013580534286771 0.5176433706240646 -0.6169696688117046 0.5314033242393611 C -0.6374820895919613 0.5464864213932759 -0.6427672718830904 0.5649993431389164 -0.6466775675921916 0.569859493287752 L -0.6577542748135301 0.579672191877226 L -0.6545831654388525 0.5817271298869238 C -0.6319973269905377 0.5626635143221377 -0.613610066921749 0.5948402954595996 -0.5827970845712991 0.5673499556823837 C -0.5721528013555983 0.5578440194216954 -0.5587254815907927 0.5444203955885617 -0.5481551170085341 0.5349403308495784" fill="#aac527" transform="matrix(1,0,0,1,0,0)" fill-rule="nonzero"></path></g><g clip-path="url(#a20fbc1ec-ef5b-4f61-9be3-9d2710ec2a3046a0885f-2f8d-4614-95ac-8b028721516a)"><path d=" M -0.8315037186514831 0.11174137066534534 C -0.8315037186514831 0.11174137066534534 -0.5057960441143863 0.21162392410434222 -0.4601956391437909 0.20945441221280878 C -0.4601956391437909 0.20945441221280878 -0.4794920984039206 0.38967912834031304 -0.4862519574322248 0.38967912834031304 C -0.4930118164605293 0.38967912834031304 -0.6187067566976003 0.5438475261793834 -0.8315037186514831 0.5264766473204275 Z" fill="#d4d6c9" transform="matrix(1,0,0,1,0,0)" fill-rule="nonzero"></path></g><g clip-path="url(#a20fbc1ec-ef5b-4f61-9be3-9d2710ec2a3046a0885f-2f8d-4614-95ac-8b028721516a)"><path d=" M -1.3447910133435994 0.12952988980325064 C -1.4706374867792276 0.12972577418187292 -1.676271733152545 0.22923503852198585 -1.8361355616983497 0.24877912520414736 C -1.807902339655038 0.3188983408875756 -1.7769784793544243 0.31418972393729694 -1.716413247043422 0.29614988144568755 C -1.6276406642108125 0.2697091862633532 -1.5066099897439549 0.22758295706454895 -1.406734828168302 0.1828215285835243 C -1.5387608993597117 0.2580300421794594 -1.6727975573807539 0.31307724850398927 -1.7708728002320848 0.336468800056826 C -1.7338950038525414 0.39164536398988 -1.7062826983301456 0.3853031452405249 -1.6544139932436375 0.3634860605800107 C -1.5642258685806067 0.3255473219657164 -1.4496408989499234 0.26658981993208547 -1.3487715317544708 0.20429489159853156 C -1.4745699580783613 0.29986798870783854 -1.596690932388494 0.37198670342588275 -1.6932138839375352 0.4066656303053688 C -1.6377231658123512 0.45844563303174607 -1.6100960765632668 0.4597392091169874 -1.5549934312636553 0.42235486025351093 C -1.478653962576052 0.37055637786877305 -1.3904616410159654 0.30125026715321085 -1.3091178808443136 0.22897632330493756 C -1.407322481304169 0.3348351982577497 -1.4996468544736838 0.4197455324929954 -1.5828348845497224 0.47235342391392715 C -1.522491408139047 0.5056722479380736 -1.4970744860298895 0.49656916822964625 -1.4555174303085914 0.45414726449707243 C -1.3973841210378428 0.394801689637869 -1.338404443414179 0.3233556344841503 -1.2792362732752374 0.24959962203535763 C -1.3466094117262817 0.3525128394454915 -1.404702065748637 0.43970725945410627 -1.467939456658581 0.5039647275055549 C -1.43217022993582 0.5075276056374769 -1.4006069734559299 0.5024161321349373 -1.3770638887045363 0.48777285085000466 C -1.309435730968116 0.4457131484212985 -1.269822735306352 0.368930167933041 -1.2534645417255565 0.27735976482463814 C -1.2287831100191506 0.30377458848526756 -1.1854815745486125 0.30894889282623317 -1.159935294830931 0.28253776509727585 C -1.2341496028070664 0.2590131600042429 -1.2051587147709704 0.1837085521848327 -1.2677677972966541 0.147444070618008 C -1.289758590745758 0.13470789007588838 -1.3157483822640939 0.12948553862318524 -1.3447910133435994 0.12952988980325064 M -0.8913445483547504 0.12952988980325064 C -0.920387179434256 0.12948553862318524 -0.9463732750209196 0.13470789007588838 -0.9683640684700234 0.147444070618008 C -1.0309768469273795 0.1837085521848327 -1.0019859588912836 0.2590131600042429 -1.0762002668674189 0.28253776509727585 C -1.0506539871497373 0.30894889282623317 -1.0073524516791994 0.30377458848526756 -0.9826710199727935 0.27735976482463814 C -0.9663128263919979 0.368930167933041 -0.9266998307302341 0.4457131484212985 -0.8590716729938135 0.48777285085000466 C -0.8355285882424199 0.5024161321349373 -0.8039616358308577 0.5075276056374769 -0.768196105039769 0.5039647275055549 C -0.8314334959497129 0.43970725945410627 -0.8895261499720682 0.3525128394454915 -0.9568992884231126 0.24959962203535768 C -0.8977311182841708 0.32335563448415033 -0.8387514406605071 0.394801689637869 -0.7806181313897584 0.4541472644970725 C -0.7390610756684604 0.49656916822964625 -0.713644153559303 0.5056722479380736 -0.6533006771486276 0.4723534239139272 C -0.7364887072246662 0.4197455324929954 -0.8288130803941811 0.33483519825774977 -0.927013984922364 0.2289763233049376 C -0.8456739206823847 0.30125026715321085 -0.7574815991222981 0.3705563778687731 -0.6811421304346945 0.422354860253511 C -0.626039485135083 0.4597392091169875 -0.5984123958859986 0.4584456330317461 -0.5429179818291425 0.4066656303053688 C -0.6394446293098559 0.3719867034258829 -0.7615692995516607 0.2998679887078386 -0.887364029943879 0.20429489159853167 C -0.7864909668167543 0.2665898199320855 -0.6719096931177433 0.3255473219657165 -0.5817215684547126 0.3634860605800108 C -0.5298528633682045 0.38530314524052506 -0.5022405578458087 0.39164536398988004 -0.4652627614662652 0.33646880005682606 C -0.563338004317596 0.31307724850398944 -0.6973746623386381 0.2580300421794595 -0.8293970375983755 0.18282152858352435 C -0.7295255719543952 0.227582957064549 -0.6084948974875373 0.2697091862633534 -0.5197223146549281 0.29614988144568755 C -0.45916077827559754 0.314189723937297 -0.42823322204331205 0.31889834088757574 -0.40000000000000013 0.24877912520414747 C -0.5598638285458051 0.22923503852198585 -0.7654980749191225 0.12972577418187292 -0.8913445483547504 0.12952988980325064 M -1.1180788686441914 0.13462657957910176 C -1.1545429305213104 0.13462657957910176 -1.184088208308224 0.16419772888772022 -1.184088208308224 0.20065809483316718 C -1.184088208308224 0.22957506423582075 -1.1654902801341247 0.2541234424020304 -1.139603974702608 0.2630565092535403 C -1.1393970025289697 0.2819575038247533 -1.1390828483368396 0.3098950513342955 -1.1385432423127102 0.3526828523024089 L -1.1381477776237938 0.3829377489703692 C -1.1374270709477305 0.43832128507706186 -1.1364993920980289 0.5058163892732862 -1.1353869166647212 0.5771626542718575 C -1.1297025737530033 0.579232376008244 -1.1239036569594498 0.5812799221545975 -1.1180529971224864 0.5833496438909836 L -1.1085507567934703 0.5799789542060118 C -1.1059377331012827 0.579047579424638 -1.1033431890674557 0.5781235965066085 -1.1007745165553335 0.5771885257935625 C -1.099662041122026 0.5058348689316468 -1.0987084907506195 0.438324981008734 -1.0979877840745562 0.3829377489703692 L -1.0975923193856396 0.3526828523024089 C -1.0970527133615104 0.30989505133429546 -1.096727471374364 0.28195750382475326 -1.0965315869957415 0.2630565092535403 C -1.0706452815642251 0.2541234424020304 -1.052047353390126 0.2295750642358207 -1.052047353390126 0.20065809483316718 C -1.052047353390126 0.1641977288877202 -1.0816185026987444 0.13462657957910176 -1.1180788686441914 0.13462657957910176 M -1.1836890476876354 0.3478263980852455 C -1.1850435352164368 0.34783444951758774 -1.1863977363603049 0.347868951457559 -1.1877508765952935 0.34792988417206483 C -1.2107913146392786 0.34903127181035604 -1.2273675681887293 0.36028168782028414 -1.236770018362598 0.37768583006428924 C -1.243917950216475 0.3909098735871285 -1.251476130485957 0.40309166437843036 -1.25832099594272 0.41542498836828906 C -1.277606367407833 0.45017413794954525 -1.2824221663766033 0.49112136494494385 -1.2736073693386012 0.5291783733727459 C -1.2653839213681382 0.564703668605147 -1.2455552479472234 0.5871749331716262 -1.2208738162408173 0.6021915035554428 C -1.1961923845344113 0.6172080739392594 -1.1668208155360873 0.6249917060407406 -1.1388352209148076 0.6322616036397971 C -1.110849626293528 0.6395315012388539 -1.084261093844309 0.6463431033105679 -1.0651309515094247 0.6584842388534765 C -1.0460045051062126 0.6706253743963851 -1.0339188085383857 0.6876007885664244 -1.0339188085383857 0.7174565246137959 C -1.0339188085383857 0.7379689453940524 -1.0405086547097726 0.7598932120730582 -1.0564011608998813 0.7720491313426552 C -1.0697434742362284 0.7822572946210459 -1.0867151924745955 0.7883223184949919 -1.1043854417989931 0.7938920875248743 C -1.100324259601433 0.7952470038621507 -1.0962899931547239 0.7966813001797957 -1.0922849615044783 0.7981941519912197 C -1.0815556718603183 0.8022929402155992 -1.0709150845762898 0.8073378869480405 -1.061390668657241 0.8143047181499835 C -1.0492421412509882 0.810165274677211 -1.0380102048994206 0.8045770259889683 -1.0289588682344029 0.7960172482363422 C -1.0068904602201845 0.7751537139472345 -0.9961242112593041 0.7463402306314003 -0.9961242112593041 0.7181217923147771 C -0.9961242112593041 0.6815283728291339 -1.0091560663351933 0.6560929710616158 -1.0290623543212223 0.6377020150611552 C -1.0489723382389236 0.6193110590606945 -1.075446296806307 0.6078795423988326 -1.1023970305593935 0.5979707495858835 C -1.1293440683808078 0.5880619567729344 -1.1568676715430728 0.579646320355521 -1.1790432615757824 0.5678747779798242 C -1.2012225475401646 0.5560995396724552 -1.2178985912447624 0.5412862455306052 -1.2245069170745098 0.5180573149713418 C -1.2312519923761256 0.49436269702139135 -1.227881302691154 0.46785547506895897 -1.2174218160590589 0.4442754310008442 C -1.2156286698425183 0.44024046722628113 -1.2133565940263207 0.4364358880605455 -1.2106545651674103 0.43294370449412944 C -1.1998439650264645 0.43451077952310774 -1.188641596128274 0.42844205971748944 -1.1789397754889632 0.4209467102864336 C -1.1683213637949674 0.41274543790600315 -1.1592700271299496 0.40243378854079304 -1.154653808471474 0.3952821607552442 C -1.1493390587269678 0.3870439290580925 -1.1457355253466526 0.38015840835293613 -1.143931910690659 0.3741525193857439 C -1.1421282960346653 0.36815032635022377 -1.1421541675563698 0.3627357864505704 -1.144940900037147 0.3583634992824546 C -1.1477239365862522 0.3539912121143386 -1.1528132344987592 0.3513338372420855 -1.159244155608245 0.34981850525651703 C -1.165678772649403 0.3482957814076043 -1.1737359036946207 0.34776356724681934 -1.1836890476876354 0.34782639808524524 M -1.0560833107760792 0.34782639808524524 C -1.0643806773799847 0.3479077085820319 -1.071262502153469 0.3484879698545545 -1.076887710158433 0.34981850525651703 C -1.0833223271995909 0.3513338372420855 -1.0884116251120979 0.3539912121143386 -1.091194661661203 0.3583634992824546 C -1.0939813941419803 0.3627357864505704 -1.0940072656636848 0.36815032635022377 -1.0922036510076911 0.3741525193857439 C -1.0904000363516975 0.38015840835293613 -1.086796502971382 0.3870439290580925 -1.0814817532268761 0.3952821607552442 C -1.0768655345684002 0.40243378854079304 -1.0678141979033826 0.41274543790600304 -1.0571957862093868 0.4209467102864336 C -1.0474939655700761 0.42844205971748955 -1.0362915966718855 0.43451077952310774 -1.0254809965309395 0.43294370449412956 C -1.0227776602405316 0.43643499642351086 -1.0205054868358134 0.44023973900071756 -1.018713745639291 0.4442754310008442 C -1.0082542590071961 0.4678554750689589 -1.0048798733905522 0.49436269702139135 -1.0116249486921682 0.5180573149713417 C -1.01824066638526 0.5412862455306051 -1.0349130141581855 0.5560995396724552 -1.0570886041908953 0.5678747779798242 C -1.0715655685505827 0.575558619926158 -1.088326618683639 0.5818195281787265 -1.1057122812692834 0.587991734071164 C -1.1035538571727663 0.5887678797223088 -1.1013991290079215 0.5895329375784374 -1.099237008979732 0.5903275628879427 L -1.0991298269612408 0.5903793059313525 C -1.080106866644848 0.5973757045866724 -1.0609028056765215 0.6052147756632352 -1.043768466444581 0.616017983940837 C -1.0338448899049433 0.6121446475484571 -1.0242354675574359 0.6076503946351611 -1.0152617454575328 0.6021915035554426 C -0.9905803137511268 0.5871749331716258 -0.9707516403302121 0.5647036686051466 -0.9625244964280767 0.5291783733727456 C -0.9537133953217466 0.49112136494494363 -0.9585291942905166 0.45017413794954503 -0.97781456575563 0.4154249883682888 C -0.9846557352807209 0.4030916643784301 -0.9922176114818752 0.3909098735871282 -0.9993655433357518 0.37768583006428896 C -1.0087679935096205 0.3602816878202838 -1.0253442470590715 0.3490312718103558 -1.048384685103057 0.34792988417206455 C -1.0497891391384617 0.3478670533336385 -1.051141850130457 0.34783378994858943 -1.0524465140107147 0.34782639808524524 C -1.0536883470525464 0.347819006221901 -1.0548969167093292 0.34781531029022883 -1.0560833107760792 0.34782639808524524 M -1.1825470048009508 0.3619448570727371 C -1.1812989985684137 0.3619412059724817 -1.180051314167882 0.36198559000254016 -1.1788067219487672 0.3620779106129333 C -1.1904082514675465 0.36559274163311783 -1.2013999522604262 0.3738679326469907 -1.2077865221898465 0.3820100701206673 C -1.211175691533179 0.3863269183137015 -1.219920265869411 0.3803395090048699 -1.214794008640183 0.37502845519203587 C -1.2125025310034696 0.372655667058536 -1.2099412503546916 0.37056007380044487 -1.2071766934639472 0.36881928998287716 C -1.199928971454923 0.36425481436781104 -1.1912915791371828 0.36193007334604865 -1.1825470048009508 0.3619448570727371 M -1.0535885568973993 0.3619448570727371 C -1.0448439825611673 0.36193007334604865 -1.036206590243427 0.36425481436781104 -1.0289588682344029 0.36881928998287716 C -1.0261797861999786 0.37057582453693083 -1.023622280008926 0.37266054574070007 -1.021341553058167 0.37502845519203587 C -1.016215295828939 0.3803395090048699 -1.024959870165171 0.3863269183137015 -1.0283490395085033 0.3820100701206673 C -1.0347319135062518 0.3738679326469907 -1.0457273102308036 0.36559274163311783 -1.0573288397495828 0.3620779106129333 C -1.056079614844407 0.36197812045778616 -1.0548340858709033 0.36194855300440926 -1.0535885568973993 0.3619448570727371 M -1.1912546198204614 0.6252799887111655 C -1.196840032782426 0.6290063993577867 -1.2021286853066502 0.6331594743890759 -1.2070732073771278 0.637702015061155 C -1.226983191294829 0.6560929710616157 -1.240007654507374 0.6815283728291337 -1.240007654507374 0.7181217923147769 C -1.240007654507374 0.7463402306314001 -1.2292451014781653 0.7751537139472344 -1.207176693463947 0.796017248236342 C -1.1853743925301212 0.8166294591717458 -1.150998532047749 0.8200186285150782 -1.1213978152857536 0.827414187790987 C -1.106599304870592 0.8311138153947774 -1.0929908844538523 0.8357263381215809 -1.0824907425733643 0.8433917004095544 C -1.071986904761204 0.8510607586291998 -1.0643511099266076 0.8616865621865398 -1.0612317435953398 0.8784513082512685 C -1.0588146042817745 0.8914425080787641 -1.0631499321331692 0.9049326586819959 -1.0722456199782524 0.9153958412457629 C -1.0802251364583557 0.9245765355193047 -1.0920188544240852 0.9298506300154176 -1.1047032919227953 0.9342118293885171 C -1.0954043278357455 0.9374014184215553 -1.0858651281900085 0.9412747548139353 -1.077793213418102 0.947831337600273 C -1.069015375696821 0.9437879883509757 -1.0604112467641296 0.9381295169609626 -1.0526867495694023 0.9298062788353522 C -1.0385091556751567 0.9145420810295036 -1.0341331725753684 0.894495347639934 -1.0363100763302462 0.8760119933476704 C -1.0387346075071557 0.8553997824122667 -1.046207781348179 0.8404164754134992 -1.0568520645638797 0.8293767275088818 C -1.0674963477795802 0.8183406755359366 -1.081141727513041 0.8112777501105185 -1.0956519552577775 0.8057301566706689 C -1.1246798026105946 0.7946423616543141 -1.1573222711387432 0.7891982543012839 -1.1797344007984687 0.772049131342655 C -1.1956269069885774 0.7598932120730579 -1.202213057228292 0.7379689453940522 -1.202213057228292 0.7174565246137956 C -1.202213057228292 0.6876007885664239 -1.1901310565921375 0.6706253743963847 -1.171004610188925 0.6584842388534762 C -1.160375110699913 0.6517391635518602 -1.1474541335741875 0.6466350819126649 -1.1332617559532532 0.6421888761111066 C -1.1358932593038016 0.6414977368884205 -1.1385469382443825 0.6408139895290785 -1.141226488706668 0.6401191543747204 C -1.1575514189024148 0.6358762248151286 -1.174645102885962 0.6314152352868818 -1.1912546198204614 0.6252799887111655 M -1.1186110828049762 0.6464872446457802 L -1.1307152590311638 0.6502829664730456 C -1.131879477507881 0.6506451677769134 -1.1330215203945655 0.6510221528074693 -1.1341635632812501 0.6513991378380254 C -1.13341328915181 0.696034904642198 -1.1326223597739769 0.7409663459801401 -1.1317464239676847 0.7848185752698236 C -1.1271819483526189 0.7862895560753266 -1.1225324663090936 0.787734665359125 -1.1178164574954708 0.7892241258229886 L -1.1069356346527548 0.785797997162935 C -1.1060855703681673 0.7855318900825424 -1.105257681673613 0.7852473033437893 -1.1044113133206976 0.7849775003317246 C -1.103539073446078 0.7411104873153527 -1.1027222725465398 0.6961642622507221 -1.1019719984170997 0.6515026239248447 C -1.10729414002495 0.649765536038949 -1.1128676049865045 0.6480986708548238 -1.1186110828049762 0.6464872446457801 M -1.1731002034470164 0.8236702090071311 C -1.1752656841000833 0.8254560685229897 -1.1773299811536149 0.8273611938371876 -1.17928349713447 0.8293767275088816 C -1.189927780350171 0.8404164754134992 -1.197400954191194 0.8553997824122667 -1.1998254853681036 0.8760119933476704 C -1.2019986931913094 0.894495347639934 -1.1976264060231934 0.9145420810295036 -1.1834488121289475 0.9298062788353522 C -1.1635683956646232 0.9512205069436056 -1.1378742786800569 0.9550568840192644 -1.1183745431779608 0.9588710855048904 C -1.1086209794952406 0.9607744903160313 -1.1004381867731707 0.9627702934189752 -1.09509756550696 0.9662999081658482 C -1.0897532483090768 0.9698332188443932 -1.0863899504874492 0.974604666633098 -1.0863899504874492 0.9844543245392933 C -1.0863899504874492 0.9968467834359059 -1.0943694669675526 1.00472281382919 -1.104943527481483 1.0100153879836635 C -1.0991113473028804 1.011312660000577 -1.093415916596146 1.0123253452787373 -1.0885409827206218 1.0133047671718485 C -1.086674537226202 1.0136817522024044 -1.0849411452719786 1.0140550413012885 -1.0832853678828696 1.014472681580238 C -1.0710924892965514 1.0035844668741776 -1.069828480664687 0.9932173785338857 -1.069828480664687 0.9843471425208018 C -1.069828480664687 0.9716331375687147 -1.074418827801458 0.9622713426432391 -1.0816924213321868 0.9556297534284426 C -1.0889697107945877 0.9489918601453182 -1.098575437210423 0.9449891661444141 -1.1086875062653387 0.9415667334160325 C -1.1289042525118258 0.9347181720275971 -1.1512092001530596 0.9299836835556138 -1.1638899417200976 0.9153958412457628 C -1.1729856295651806 0.9049326586819959 -1.1773209574165753 0.8914425080787641 -1.17490381810301 0.8784513082512684 C -1.1717844517717422 0.8616865621865397 -1.164148656937146 0.8510607586291996 -1.1536448191249855 0.8433917004095544 C -1.1477719836979896 0.8391044196698971 -1.1409271182412266 0.8357965608233512 -1.133446552536859 0.8330430917276229 C -1.1461383818989135 0.8302822307685506 -1.1598502884024722 0.8277726931631824 -1.1731002034470164 0.823670209007131 M -1.119169168487466 0.8368351176232164 L -1.130500894994181 0.8410041285493658 C -1.1305286557746168 0.8410105311586031 -1.130555849124861 0.8410191835882261 -1.1305822054909676 0.8410300000710706 C -1.129942809311691 0.8705457104046073 -1.1292775416107097 0.8990746069816885 -1.1285900983196957 0.9259883814180537 C -1.1250530917094785 0.9272302144598856 -1.1214052071490976 0.9284609597067011 -1.1176575324335698 0.9296769212268278 L -1.107571334900359 0.9261990495233645 C -1.106880195677673 0.8992409239069337 -1.106196448318331 0.8706565883547709 -1.1055533562073823 0.8410854390461524 C -1.1098221572886788 0.8395183640171742 -1.114382936972073 0.8381286937084577 -1.119169168487466 0.8368351176232163 M -1.1564056800840579 0.9575959890780095 C -1.1625224470014137 0.964082349162577 -1.1663033851019908 0.972830619430481 -1.1663033851019908 0.9843471425208016 C -1.1663033851019908 0.9942596312654227 -1.1647584856630453 1.0060644370261689 -1.1480972256851358 1.0183460179726178 C -1.1314396616388989 1.030631294850739 -1.0794379030121943 1.0333625883564346 -1.0794379030121943 1.0256196115033465 C -1.0794379030121943 1.0183127545875688 -1.1497456112109008 1.021262108061919 -1.1497456112109008 0.984454324539293 C -1.1497456112109008 0.9746046666330977 -1.146378617457601 0.9698332188443931 -1.1410379961913901 0.9662999081658479 C -1.1395596235225427 0.9653241822044087 -1.1378521030900242 0.9644741179198215 -1.1359671779372438 0.9637016682003487 C -1.1424572339534835 0.9622343833265179 -1.1493944977020494 0.9603272825837048 -1.1564056800840579 0.9575959890780095 M -1.1214273827391303 0.9669134328234196 L -1.1274221839113063 0.9693527477270176 C -1.1270932459924876 0.9809764528358297 -1.1267569162103248 0.9921270786906106 -1.126413194564818 1.0028489764714257 C -1.123338045866181 1.0042834160612824 -1.1201725236953184 1.0055155498859785 -1.1169368257575067 1.0065375162801997 L -1.1097186712018596 1.0029265910365401 C -1.109382341419697 0.9923451386592653 -1.109068187227567 0.9813238704130086 -1.1087392493087482 0.9698590903660976 C -1.1119657976585073 0.9689351074480682 -1.115757823554101 0.9680333001200714 -1.1199896653186765 0.9672017154938447 C -1.1204257852559865 0.9671204049970581 -1.1209838709384763 0.9669984392518782 -1.1214273827391303 0.9669134328234195 M -1.1548940440301614 1.023764253803943 C -1.1560545665752067 1.0243186435547607 -1.1566976586861553 1.0249210804173159 -1.1566976586861553 1.0256196115033465 C -1.1566976586861553 1.027977615910158 -1.1518596841273525 1.0293488065605136 -1.1446747929567542 1.0297886224294959 C -1.1479087331698579 1.0283546009407138 -1.150939397140995 1.0266914316882607 -1.1536189476032805 1.0247178041753497 C -1.1540513716089187 1.0243962581198751 -1.1544764037512123 1.0240857998594173 -1.1548940440301614 1.023764253803943 M -1.1252711516781333 1.0357834236016719 C -1.1230166333581413 1.0976754953829646 -1.1206105818395922 1.1370889107344344 -1.1180788686441911 1.1370889107344344 C -1.1155804188338392 1.1370889107344344 -1.1131780632469623 1.0984516410341096 -1.1109420245853308 1.037694220276157 C -1.1157443937736449 1.037270284002978 -1.1205255045347506 1.0366327203549273 -1.1252711516781333 1.0357834236016719" fill="#aac527" transform="matrix(1,0,0,1,0,0)" fill-rule="nonzero"></path></g></g></g><defs><clipPath id="SvgjsClipPath1002"><path d=" M -1.8361355616983497 -0.0270889107344342 h 1.4361355616983495 v 1.1641778214688683 h -1.4361355616983495 Z"></path></clipPath><clipPath id="a20fbc1ec-ef5b-4f61-9be3-9d2710ec2a3046a0885f-2f8d-4614-95ac-8b028721516a"><path d=" M -1.8361355616983497 1.1370889107344349 L -0.3999963040683283 1.1370889107344349 L -0.3999963040683283 -0.027088910734433945 L -1.8361355616983497 -0.027088910734433945 Z"></path></clipPath></defs></svg>