<svg width="38" height="38" viewBox="0 0 38 38" fill="none" xmlns="http://www.w3.org/2000/svg">
<path d="M4.94531 31.0346V35.8181C4.94531 36.8608 5.79343 37.7089 6.83611 37.7089H31.1642C32.2069 37.7089 33.055 36.8608 33.055 35.8181V8.81308C33.055 8.30836 32.8583 7.83358 32.5012 7.47604L25.8705 0.845763C25.5134 0.488639 25.0386 0.291992 24.5335 0.291992H6.83611C5.79343 0.291992 4.94531 1.14011 4.94531 2.18279V18.2355V31.0346Z" fill="#DCDFE1"/>
<path d="M4.94531 26.3662V31.035V35.8186C4.94531 36.8612 5.79343 37.7094 6.83611 37.7094H31.1642C32.2069 37.7094 33.055 36.8612 33.055 35.8186V26.3662H4.94531Z" fill="#EA5440"/>
<path d="M25.3484 7.94629L33.0563 15.6251L33.023 8.49507L25.3484 7.94629Z" fill="#C4CBD2"/>
<path d="M32.5007 7.47653L25.8704 0.846248C25.5898 0.565205 25.2347 0.388098 24.8506 0.323242V6.71821C24.8506 7.69854 25.6484 8.49635 26.6287 8.49635H33.0237C32.9588 8.11262 32.7817 7.75757 32.5007 7.47653Z" fill="#ABB2B8"/>
<path d="M12.0919 22.7477C11.6866 22.7477 11.4197 22.5311 11.2733 22.3623L11.2097 22.2638C10.9058 21.604 10.7732 20.5701 11.8687 19.3935C12.7796 18.4157 14.3415 17.563 16.1201 16.9099C16.7574 15.7254 17.3536 14.4541 17.83 13.2409C16.693 11.3717 16.2182 9.4061 16.6867 8.11854C16.9353 7.43506 17.4496 7.00518 18.1352 6.90748L18.1938 6.90332C18.943 6.90332 19.4602 7.33569 19.651 8.1202C19.9183 9.22151 19.5092 11.0944 18.7509 13.1378C19.0511 13.596 19.4003 14.0533 19.7986 14.4969C20.1707 14.9459 20.5511 15.3504 20.9315 15.7121C22.8514 15.446 24.5954 15.471 25.6614 15.8734C26.7465 16.2829 26.9914 16.9701 27.0059 17.4749V17.4832C27.0113 18.1396 26.6845 18.6364 26.1087 18.8464C24.9509 19.2692 22.7691 18.5071 20.6396 16.5806C19.3412 16.7868 17.971 17.1273 16.7046 17.5705C15.3792 19.9755 13.8838 21.9961 12.807 22.5519C12.5322 22.6933 12.2948 22.7477 12.0919 22.7477ZM11.9389 21.8568C12.0054 21.9154 12.1293 21.9653 12.4254 21.8131C13.2381 21.3937 14.3798 19.9103 15.4794 18.0469C14.2189 18.5915 13.1463 19.2418 12.4769 19.9602C11.8608 20.622 11.6841 21.2436 11.9389 21.8568ZM21.7576 16.4342C23.5016 17.8262 25.1238 18.3209 25.8227 18.0652C25.9873 18.0049 26.1761 17.8856 26.174 17.4936C26.1698 17.3535 26.1499 16.9464 25.3675 16.6513C24.5414 16.3399 23.2368 16.2846 21.7576 16.4342ZM18.385 14.0724C18.0483 14.891 17.6654 15.7217 17.2555 16.5282C18.1294 16.2605 19.0311 16.041 19.915 15.8767C19.663 15.6144 19.4136 15.3354 19.1687 15.0398C18.8881 14.7276 18.6262 14.4038 18.385 14.0724ZM18.2233 7.73564C17.8566 7.79675 17.6093 8.01543 17.4683 8.40291C17.1694 9.224 17.408 10.67 18.2088 12.214C18.7659 10.5918 19.0477 9.16289 18.8424 8.31685C18.723 7.82502 18.4769 7.74104 18.2233 7.73564Z" fill="#EA5440"/>
<path d="M14.0491 28.7998H12.2307C12.0012 28.7998 11.8149 28.9856 11.8149 29.2155V32.5793V34.883C11.8149 35.1129 12.0012 35.2987 12.2307 35.2987C12.4602 35.2987 12.6464 35.1129 12.6464 34.883V32.9951H14.0491C14.9293 32.9951 15.6448 32.2792 15.6448 31.3994V30.3954C15.6448 29.5157 14.9289 28.7998 14.0491 28.7998ZM14.8133 31.3994C14.8133 31.821 14.4703 32.1636 14.0491 32.1636H12.6464V29.6313H14.0491C14.4707 29.6313 14.8133 29.9739 14.8133 30.3954V31.3994Z" fill="white"/>
<path d="M19.1458 35.2987H17.4492C17.2197 35.2987 17.0334 35.1129 17.0334 34.883V29.2155C17.0334 28.9856 17.2197 28.7998 17.4492 28.7998H19.1463C20.0933 28.7998 20.8633 29.5702 20.8633 30.5168V33.5813C20.8629 34.5283 20.0929 35.2987 19.1458 35.2987ZM17.8649 34.4672H19.1463C19.6343 34.4672 20.0318 34.0698 20.0318 33.5813V30.5168C20.0318 30.0283 19.6343 29.6313 19.1463 29.6313H17.8649V34.4672Z" fill="white"/>
<path d="M25.7691 28.7998H22.7707C22.5408 28.7998 22.355 28.9856 22.355 29.2155V34.883C22.355 35.1129 22.5408 35.2987 22.7707 35.2987C23.0006 35.2987 23.1865 35.1129 23.1865 34.883V32.465H24.7343C24.9642 32.465 25.15 32.2792 25.15 32.0493C25.15 31.8194 24.9642 31.6335 24.7343 31.6335H23.1865V29.6317H25.7691C25.999 29.6317 26.1848 29.4459 26.1848 29.216C26.1848 28.9861 25.999 28.7998 25.7691 28.7998Z" fill="white"/>
</svg>
