<svg width="23" height="23" viewBox="0 0 23 23" fill="none" xmlns="http://www.w3.org/2000/svg">
<path d="M8.50035 0.393437C11.0656 -0.296002 13.7905 -0.0745448 16.2108 1.02007C18.631 2.11468 20.5968 4.0147 21.773 6.39633C22.9493 8.77795 23.2633 11.4938 22.6615 14.081C22.0596 16.6682 20.5793 18.9666 18.4726 20.5846C16.366 22.2025 13.7635 23.0399 11.1086 22.954C8.45372 22.868 5.9108 21.8641 3.91321 20.1133C1.91562 18.3625 0.58699 15.9731 0.153748 13.3524C-0.279495 10.7317 0.209465 8.04187 1.5373 5.7413C2.28853 4.43525 3.29038 3.29048 4.48531 2.37273C5.68025 1.45498 7.04471 0.782339 8.50035 0.393437ZM5.71251 13.1282C6.15242 13.7027 6.67759 14.2064 7.26982 14.622C8.56371 15.5115 10.1029 15.975 11.6728 15.9478C13.2087 15.9395 14.7004 15.4337 15.9246 14.5063C16.4337 14.1149 16.8796 13.6476 17.2466 13.1208C17.2527 13.112 17.2619 13.1059 17.2724 13.1038C17.2828 13.1017 17.2937 13.1038 17.3027 13.1096L17.7359 13.5372C17.7418 13.5442 17.745 13.5531 17.745 13.5624C17.745 13.5716 17.7418 13.5805 17.7359 13.5876C17.1217 14.6558 16.2725 15.5703 15.2524 16.2615C14.2001 16.9641 12.9696 17.3527 11.7046 17.3819C10.4213 17.4019 9.15807 17.0623 8.05781 16.4016C6.90604 15.7014 5.92899 14.748 5.20088 13.6137C5.19557 13.6064 5.1927 13.5976 5.1927 13.5885C5.1927 13.5795 5.19557 13.5706 5.20088 13.5633L5.64529 13.1226C5.6529 13.1155 5.66291 13.1116 5.6733 13.1116C5.6837 13.1116 5.69371 13.1155 5.70131 13.1226L5.71251 13.1282ZM14.231 6.32949C14.9891 6.32949 15.6034 7.22018 15.6034 8.31814C15.6034 9.41609 14.9891 10.3049 14.231 10.3049C13.4729 10.3049 12.8586 9.41422 12.8586 8.31814C12.8586 7.22205 13.4729 6.32949 14.231 6.32949ZM8.70762 6.32949C9.46573 6.32949 10.0801 7.22018 10.0801 8.31814C10.0801 9.41609 9.46573 10.3049 8.70762 10.3049C7.9495 10.3049 7.33517 9.41422 7.33517 8.31814C7.33517 7.22205 7.9495 6.32949 8.70762 6.32949ZM11.6728 14.081C9.62908 12.8994 15.188 15.8781 12.8586 16.2615C10.5292 16.6449 8.14855 12.3067 6.59124 14.081C5.03394 15.8552 10.5781 9.14056 10.5 11.5C10.4219 13.8594 9.56339 11.1267 11 13C12.4366 14.8733 7.7811 13.5444 10.0801 14.081C12.379 14.6175 9.38259 13.0439 11.5 12C13.6174 10.9561 12.5256 14.1503 13.5 12C14.4744 9.84973 16.071 11.4842 15.46 9.20392C15.1151 7.91003 17.3149 12.0626 16.5 11C15.6851 9.93743 6.21261 31.5526 11.6728 14.081Z" fill="#6D7993"/>
<ellipse cx="8.5" cy="8" rx="1.5" ry="2" fill="white"/>
<ellipse cx="14.5" cy="8" rx="1.5" ry="2" fill="white"/>
<path d="M16 14C16 15.3807 13.9853 16.5 11.5 16.5C9.01472 16.5 7 15.3807 7 14C8.30646 15.8871 14.6856 15.8986 16 14Z" fill="white"/>
</svg>
