<svg width="80" height="70" viewBox="0 0 80 70" fill="none" xmlns="http://www.w3.org/2000/svg">
<path id="Vector" d="M55.9167 11.3635L68.4444 23.698C68.9722 24.2176 68.9722 25.0654 68.4444 25.5851L38.1111 55.4503L25.2222 56.8588C23.5 57.0502 22.0417 55.6144 22.2361 53.9187L23.6667 41.2288L54 11.3635C54.5278 10.8439 55.3889 10.8439 55.9167 11.3635ZM78.4167 8.23208L71.6389 1.5589C69.5278 -0.519633 66.0972 -0.519633 63.9722 1.5589L59.0556 6.39969C58.5278 6.91932 58.5278 7.76714 59.0556 8.28677L71.5833 20.6212C72.1111 21.1408 72.9722 21.1408 73.5 20.6212L78.4167 15.7804C80.5278 13.6882 80.5278 10.3106 78.4167 8.23208ZM53.3333 47.3276V61.2483H8.88889V17.4897H40.8056C41.25 17.4897 41.6667 17.312 41.9861 17.0111L47.5417 11.5413C48.5972 10.5021 47.8472 8.73803 46.3611 8.73803H6.66667C2.98611 8.73803 0 11.6781 0 15.3018V63.4362C0 67.06 2.98611 70 6.66667 70H55.5556C59.2361 70 62.2222 67.06 62.2222 63.4362V41.8578C62.2222 40.3946 60.4306 39.6699 59.375 40.6954L53.8194 46.1653C53.5139 46.4798 53.3333 46.89 53.3333 47.3276Z" fill="#452928" fill-opacity="0.2"/>
</svg>
