<svg width="10" height="11" viewBox="0 0 10 11" fill="none" xmlns="http://www.w3.org/2000/svg">
<path d="M9.34886 3.32464C9.24763 3.32778 9.15156 3.37187 9.081 3.44756L3.12259 9.65687L0.670734 7.10178C0.634833 7.06281 0.591831 7.0317 0.544248 7.01027C0.496664 6.98883 0.445456 6.97751 0.393621 6.97696C0.341786 6.97641 0.290367 6.98665 0.242375 7.00706C0.194383 7.02748 0.150783 7.05768 0.114128 7.09587C0.077473 7.13407 0.0485005 7.17951 0.028907 7.22952C0.00931347 7.27953 -0.000507207 7.33312 2.01672e-05 7.38714C0.000547541 7.44115 0.0114124 7.49452 0.0319783 7.54411C0.0525442 7.59369 0.0823978 7.63851 0.119791 7.67592L2.84711 10.5181C2.92018 10.5942 3.01927 10.637 3.12259 10.637C3.2259 10.637 3.32499 10.5942 3.39806 10.5181L9.63194 4.0217C9.68824 3.96467 9.72669 3.89124 9.74226 3.81105C9.75783 3.73085 9.74979 3.64762 9.71919 3.57227C9.68859 3.49691 9.63686 3.43295 9.57077 3.38877C9.50469 3.34458 9.42734 3.32223 9.34886 3.32464Z" fill="white"/>
<path d="M9.34886 0.000176525C9.24763 0.00331961 9.15156 0.0474054 9.081 0.123094L3.12259 6.33241L0.670734 3.77731C0.634833 3.73834 0.591831 3.70723 0.544248 3.6858C0.496664 3.66437 0.445456 3.65305 0.393621 3.6525C0.341786 3.65195 0.290367 3.66218 0.242375 3.6826C0.194383 3.70302 0.150783 3.73321 0.114128 3.77141C0.077473 3.80961 0.0485005 3.85505 0.028907 3.90506C0.00931347 3.95507 -0.000507207 4.00866 2.01672e-05 4.06267C0.000547541 4.11669 0.0114124 4.17006 0.0319783 4.21964C0.0525442 4.26923 0.0823978 4.31404 0.119791 4.35146L2.84711 7.19363C2.92018 7.26974 3.01927 7.3125 3.12259 7.3125C3.2259 7.3125 3.32499 7.26974 3.39806 7.19363L9.63194 0.697238C9.68824 0.640206 9.72669 0.566781 9.74226 0.486583C9.75783 0.406385 9.74979 0.323157 9.71919 0.247804C9.68859 0.172452 9.63686 0.108491 9.57077 0.064304C9.50469 0.0201168 9.42734 -0.00223541 9.34886 0.000176525Z" fill="white"/>
</svg>
