<svg width="24" height="24" viewBox="0 0 24 24" fill="none" xmlns="http://www.w3.org/2000/svg">
<path d="M12.3002 22.3499L13.4252 21.2249C13.6502 20.9999 13.6502 20.6999 13.4252 20.4749L6.3752 13.3499H22.0502C22.3502 13.3499 22.5752 13.1249 22.5752 12.8249V11.2499C22.5752 10.9499 22.3502 10.7249 22.0502 10.7249H6.3002L13.3502 3.5999C13.5752 3.3749 13.5752 3.0749 13.3502 2.8499L12.2252 1.7249C12.0002 1.4999 11.7002 1.4999 11.4752 1.7249L1.6502 11.6249C1.4252 11.8499 1.4252 12.1499 1.6502 12.3749L11.4752 22.3499C11.7002 22.5749 12.0752 22.5749 12.3002 22.3499Z" fill="white"/>
</svg>
